<mxfile host="drawio-plugin" modified="2023-06-22T09:08:13.841Z" agent="5.0 (Windows NT 6.2; Win64; x64) AppleWebKit/537.36 (KHTML, like Gecko) Chrome/89.0.4389.114 Safari/537.36" etag="eqSbsWVdRO3kAwtTD--U" version="20.5.3" type="embed"><diagram name="Page-1" id="AngQqpGPFP4DrtoyE51B"><mxGraphModel dx="602" dy="433" grid="1" gridSize="10" guides="1" tooltips="1" connect="1" arrows="1" fold="1" page="1" pageScale="1" pageWidth="827" pageHeight="1169" math="0" shadow="0"><root><mxCell id="0"/><mxCell id="1" parent="0"/><mxCell id="sMxC_BpVTvGF2aHkU9Yo-5" value="Branches" style="whiteSpace=wrap;html=1;align=center;labelBackgroundColor=#FFFFFF;" parent="1" vertex="1"><mxGeometry x="288.75" y="492.5" width="100" height="40" as="geometry"/></mxCell><mxCell id="sMxC_BpVTvGF2aHkU9Yo-8" value="Address&lt;br&gt;Text" style="ellipse;whiteSpace=wrap;html=1;align=center;fontStyle=4;labelBackgroundColor=#FFFFFF;" parent="1" vertex="1"><mxGeometry x="365.94" y="345" width="74.06" height="40" as="geometry"/></mxCell><mxCell id="sMxC_BpVTvGF2aHkU9Yo-9" value="PhoneNumber&lt;br&gt;Text" style="ellipse;whiteSpace=wrap;html=1;align=center;labelBackgroundColor=#FFFFFF;" parent="1" vertex="1"><mxGeometry x="239.22" y="320" width="102.5" height="50" as="geometry"/></mxCell><mxCell id="sMxC_BpVTvGF2aHkU9Yo-10" value="ContactNumber&lt;br&gt;Text" style="ellipse;whiteSpace=wrap;html=1;align=center;labelBackgroundColor=#FFFFFF;" parent="1" vertex="1"><mxGeometry x="160" y="270" width="110" height="50" as="geometry"/></mxCell><mxCell id="sMxC_BpVTvGF2aHkU9Yo-11" value="Region&lt;br&gt;Integer" style="ellipse;whiteSpace=wrap;html=1;align=center;labelBackgroundColor=#FFFFFF;" parent="1" vertex="1"><mxGeometry x="328.75" y="270" width="60" height="50" as="geometry"/></mxCell><mxCell id="sMxC_BpVTvGF2aHkU9Yo-12" value="Type&lt;br&gt;Integer" style="ellipse;whiteSpace=wrap;html=1;align=center;labelBackgroundColor=#FFFFFF;" parent="1" vertex="1"><mxGeometry x="191.25" y="370" width="57.5" height="40" as="geometry"/></mxCell><mxCell id="sMxC_BpVTvGF2aHkU9Yo-13" value="MorningShiftStartHour&lt;br&gt;Text" style="ellipse;whiteSpace=wrap;html=1;align=center;labelBackgroundColor=#FFFFFF;" parent="1" vertex="1"><mxGeometry x="15" y="310" width="170" height="50" as="geometry"/></mxCell><mxCell id="sMxC_BpVTvGF2aHkU9Yo-14" value="EveningShiftStartHour&lt;br&gt;Text" style="ellipse;whiteSpace=wrap;html=1;align=center;labelBackgroundColor=#FFFFFF;" parent="1" vertex="1"><mxGeometry x="15" y="388.75" width="170" height="42.5" as="geometry"/></mxCell><mxCell id="sMxC_BpVTvGF2aHkU9Yo-15" value="MorningShiftEndHour&lt;br&gt;Text" style="ellipse;whiteSpace=wrap;html=1;align=center;labelBackgroundColor=#FFFFFF;" parent="1" vertex="1"><mxGeometry x="11.02" y="450" width="190" height="40" as="geometry"/></mxCell><mxCell id="sMxC_BpVTvGF2aHkU9Yo-16" value="EveningShiftEndHour&lt;br&gt;Text" style="ellipse;whiteSpace=wrap;html=1;align=center;labelBackgroundColor=#FFFFFF;" parent="1" vertex="1"><mxGeometry x="5" y="500" width="175" height="40" as="geometry"/></mxCell><mxCell id="sMxC_BpVTvGF2aHkU9Yo-17" value="" style="endArrow=none;html=1;rounded=0;exitX=0.5;exitY=1;exitDx=0;exitDy=0;fontColor=#000000;labelBackgroundColor=#FFFFFF;" parent="1" source="sMxC_BpVTvGF2aHkU9Yo-10" target="sMxC_BpVTvGF2aHkU9Yo-5" edge="1"><mxGeometry relative="1" as="geometry"><mxPoint x="228.75" y="441.5" as="sourcePoint"/><mxPoint x="298.75" y="482.5" as="targetPoint"/></mxGeometry></mxCell><mxCell id="sMxC_BpVTvGF2aHkU9Yo-21" value="" style="endArrow=none;html=1;rounded=0;fontColor=#000000;labelBackgroundColor=#FFFFFF;" parent="1" source="sMxC_BpVTvGF2aHkU9Yo-9" target="sMxC_BpVTvGF2aHkU9Yo-5" edge="1"><mxGeometry relative="1" as="geometry"><mxPoint x="338.75" y="422.5" as="sourcePoint"/><mxPoint x="412.75" y="492.5" as="targetPoint"/></mxGeometry></mxCell><mxCell id="sMxC_BpVTvGF2aHkU9Yo-22" value="" style="endArrow=none;html=1;rounded=0;fontColor=#000000;labelBackgroundColor=#FFFFFF;" parent="1" source="sMxC_BpVTvGF2aHkU9Yo-11" target="sMxC_BpVTvGF2aHkU9Yo-5" edge="1"><mxGeometry relative="1" as="geometry"><mxPoint x="398.75" y="422.5" as="sourcePoint"/><mxPoint x="398.75" y="492.5" as="targetPoint"/></mxGeometry></mxCell><mxCell id="sMxC_BpVTvGF2aHkU9Yo-23" value="" style="endArrow=none;html=1;rounded=0;fontColor=#000000;labelBackgroundColor=#FFFFFF;" parent="1" source="sMxC_BpVTvGF2aHkU9Yo-8" target="sMxC_BpVTvGF2aHkU9Yo-5" edge="1"><mxGeometry relative="1" as="geometry"><mxPoint x="458.75" y="442.5" as="sourcePoint"/><mxPoint x="409.75" y="514.5" as="targetPoint"/></mxGeometry></mxCell><mxCell id="sMxC_BpVTvGF2aHkU9Yo-24" value="" style="endArrow=none;html=1;rounded=0;fontColor=#000000;labelBackgroundColor=#FFFFFF;" parent="1" source="sMxC_BpVTvGF2aHkU9Yo-12" target="sMxC_BpVTvGF2aHkU9Yo-5" edge="1"><mxGeometry relative="1" as="geometry"><mxPoint x="248.75" y="432.5" as="sourcePoint"/><mxPoint x="326.75" y="502.5" as="targetPoint"/></mxGeometry></mxCell><mxCell id="sMxC_BpVTvGF2aHkU9Yo-25" value="" style="endArrow=none;html=1;rounded=0;fontColor=#000000;labelBackgroundColor=#FFFFFF;" parent="1" source="sMxC_BpVTvGF2aHkU9Yo-13" target="sMxC_BpVTvGF2aHkU9Yo-5" edge="1"><mxGeometry relative="1" as="geometry"><mxPoint x="204.75" y="443.5" as="sourcePoint"/><mxPoint x="278.75" y="502.5" as="targetPoint"/></mxGeometry></mxCell><mxCell id="sMxC_BpVTvGF2aHkU9Yo-27" value="" style="endArrow=none;html=1;rounded=0;fontColor=#000000;labelBackgroundColor=#FFFFFF;" parent="1" source="sMxC_BpVTvGF2aHkU9Yo-14" target="sMxC_BpVTvGF2aHkU9Yo-5" edge="1"><mxGeometry relative="1" as="geometry"><mxPoint x="194.75" y="486.5" as="sourcePoint"/><mxPoint x="298.75" y="510.5" as="targetPoint"/></mxGeometry></mxCell><mxCell id="sMxC_BpVTvGF2aHkU9Yo-28" value="" style="endArrow=none;html=1;rounded=0;fontColor=#000000;labelBackgroundColor=#FFFFFF;" parent="1" source="sMxC_BpVTvGF2aHkU9Yo-15" target="sMxC_BpVTvGF2aHkU9Yo-5" edge="1"><mxGeometry relative="1" as="geometry"><mxPoint x="218.75" y="522.5" as="sourcePoint"/><mxPoint x="268.75" y="532.5" as="targetPoint"/></mxGeometry></mxCell><mxCell id="sMxC_BpVTvGF2aHkU9Yo-29" value="" style="endArrow=none;html=1;rounded=0;fontColor=#000000;labelBackgroundColor=#FFFFFF;" parent="1" source="sMxC_BpVTvGF2aHkU9Yo-16" target="sMxC_BpVTvGF2aHkU9Yo-5" edge="1"><mxGeometry relative="1" as="geometry"><mxPoint x="153.49490822946018" y="519.5331909413951" as="sourcePoint"/><mxPoint x="298.75" y="536.5" as="targetPoint"/></mxGeometry></mxCell><mxCell id="sMxC_BpVTvGF2aHkU9Yo-30" value="BranchEmployees" style="whiteSpace=wrap;html=1;align=center;labelBackgroundColor=#FFFFFF;" parent="1" vertex="1"><mxGeometry x="86.98000000000002" y="1390" width="120" height="40" as="geometry"/></mxCell><mxCell id="sMxC_BpVTvGF2aHkU9Yo-31" value="EmployeeId&lt;br&gt;Text" style="ellipse;whiteSpace=wrap;html=1;align=center;fontStyle=4;labelBackgroundColor=#FFFFFF;" parent="1" vertex="1"><mxGeometry x="721.48" y="957.5" width="102.52" height="40" as="geometry"/></mxCell><mxCell id="sMxC_BpVTvGF2aHkU9Yo-32" value="FirstName&lt;br&gt;Text" style="ellipse;whiteSpace=wrap;html=1;align=center;labelBackgroundColor=#FFFFFF;" parent="1" vertex="1"><mxGeometry x="718" y="1069" width="87.36" height="40" as="geometry"/></mxCell><mxCell id="sMxC_BpVTvGF2aHkU9Yo-33" value="LastName&lt;br&gt;Text" style="ellipse;whiteSpace=wrap;html=1;align=center;labelBackgroundColor=#FFFFFF;" parent="1" vertex="1"><mxGeometry x="734.59" y="1015" width="83.41" height="40" as="geometry"/></mxCell><mxCell id="sMxC_BpVTvGF2aHkU9Yo-34" value="" style="endArrow=none;html=1;rounded=0;fontColor=#000000;labelBackgroundColor=#FFFFFF;" parent="1" source="sMxC_BpVTvGF2aHkU9Yo-31" target="n5WCB7rQCjIqwL3kKHlA-1" edge="1"><mxGeometry relative="1" as="geometry"><mxPoint x="402.59000000000003" y="1250" as="sourcePoint"/><mxPoint x="705.59" y="1080" as="targetPoint"/><Array as="points"/></mxGeometry></mxCell><mxCell id="sMxC_BpVTvGF2aHkU9Yo-35" value="" style="endArrow=none;html=1;rounded=0;fontColor=#000000;labelBackgroundColor=#FFFFFF;" parent="1" source="sMxC_BpVTvGF2aHkU9Yo-32" target="n5WCB7rQCjIqwL3kKHlA-1" edge="1"><mxGeometry relative="1" as="geometry"><mxPoint x="320.59000000000003" y="1244" as="sourcePoint"/><mxPoint x="755.59" y="1050" as="targetPoint"/></mxGeometry></mxCell><mxCell id="sMxC_BpVTvGF2aHkU9Yo-36" value="" style="endArrow=none;html=1;rounded=0;fontColor=#000000;labelBackgroundColor=#FFFFFF;" parent="1" source="sMxC_BpVTvGF2aHkU9Yo-33" target="n5WCB7rQCjIqwL3kKHlA-1" edge="1"><mxGeometry relative="1" as="geometry"><mxPoint x="278.59" y="1227" as="sourcePoint"/><mxPoint x="222.59" y="1280" as="targetPoint"/></mxGeometry></mxCell><mxCell id="sMxC_BpVTvGF2aHkU9Yo-37" value="Password&lt;br&gt;Text" style="ellipse;whiteSpace=wrap;html=1;align=center;labelBackgroundColor=#FFFFFF;" parent="1" vertex="1"><mxGeometry x="725.18" y="890" width="84.82" height="40" as="geometry"/></mxCell><mxCell id="sMxC_BpVTvGF2aHkU9Yo-38" value="" style="endArrow=none;html=1;rounded=0;fontColor=#000000;labelBackgroundColor=#FFFFFF;" parent="1" source="sMxC_BpVTvGF2aHkU9Yo-37" target="n5WCB7rQCjIqwL3kKHlA-1" edge="1"><mxGeometry relative="1" as="geometry"><mxPoint x="296.59" y="1190" as="sourcePoint"/><mxPoint x="265.59" y="1270" as="targetPoint"/></mxGeometry></mxCell><mxCell id="sMxC_BpVTvGF2aHkU9Yo-39" value="BankAccount&lt;br&gt;Integer" style="ellipse;whiteSpace=wrap;html=1;align=center;labelBackgroundColor=#FFFFFF;" parent="1" vertex="1"><mxGeometry x="613.75" y="1089" width="101.91" height="45" as="geometry"/></mxCell><mxCell id="sMxC_BpVTvGF2aHkU9Yo-40" value="" style="endArrow=none;html=1;rounded=0;fontColor=#000000;labelBackgroundColor=#FFFFFF;" parent="1" source="sMxC_BpVTvGF2aHkU9Yo-39" target="n5WCB7rQCjIqwL3kKHlA-1" edge="1"><mxGeometry relative="1" as="geometry"><mxPoint x="413.59000000000003" y="1070" as="sourcePoint"/><mxPoint x="225.59" y="1272" as="targetPoint"/></mxGeometry></mxCell><mxCell id="sMxC_BpVTvGF2aHkU9Yo-41" value="BranchBankAccount&lt;br&gt;Integer" style="ellipse;whiteSpace=wrap;html=1;align=center;labelBackgroundColor=#FFFFFF;" parent="1" vertex="1"><mxGeometry x="670.59" y="830" width="140" height="50" as="geometry"/></mxCell><mxCell id="sMxC_BpVTvGF2aHkU9Yo-42" value="" style="endArrow=none;html=1;rounded=0;fontColor=#000000;labelBackgroundColor=#FFFFFF;" parent="1" source="sMxC_BpVTvGF2aHkU9Yo-41" target="n5WCB7rQCjIqwL3kKHlA-1" edge="1"><mxGeometry relative="1" as="geometry"><mxPoint x="335.59000000000003" y="1049" as="sourcePoint"/><mxPoint x="197.59" y="1280" as="targetPoint"/><Array as="points"/></mxGeometry></mxCell><mxCell id="sMxC_BpVTvGF2aHkU9Yo-43" value="Salary&lt;br&gt;Integer" style="ellipse;whiteSpace=wrap;html=1;align=center;labelBackgroundColor=#FFFFFF;" parent="1" vertex="1"><mxGeometry x="601.2199999999999" y="820" width="72.5" height="40" as="geometry"/></mxCell><mxCell id="sMxC_BpVTvGF2aHkU9Yo-44" value="" style="endArrow=none;html=1;rounded=0;fontColor=#000000;labelBackgroundColor=#FFFFFF;" parent="1" source="sMxC_BpVTvGF2aHkU9Yo-43" edge="1"><mxGeometry relative="1" as="geometry"><mxPoint x="410.59000000000003" y="1059" as="sourcePoint"/><mxPoint x="661.59" y="1020" as="targetPoint"/></mxGeometry></mxCell><mxCell id="sMxC_BpVTvGF2aHkU9Yo-45" value="TermsOfEmployment&lt;br&gt;Text" style="ellipse;whiteSpace=wrap;html=1;align=center;labelBackgroundColor=#FFFFFF;" parent="1" vertex="1"><mxGeometry x="455.63" y="810" width="140" height="50" as="geometry"/></mxCell><mxCell id="sMxC_BpVTvGF2aHkU9Yo-46" value="" style="endArrow=none;html=1;rounded=0;fontColor=#000000;labelBackgroundColor=#FFFFFF;" parent="1" source="sMxC_BpVTvGF2aHkU9Yo-45" target="n5WCB7rQCjIqwL3kKHlA-1" edge="1"><mxGeometry relative="1" as="geometry"><mxPoint x="260.59" y="990" as="sourcePoint"/><mxPoint x="260.59" y="1290" as="targetPoint"/></mxGeometry></mxCell><mxCell id="sMxC_BpVTvGF2aHkU9Yo-47" value="StatusOfEmployee&lt;br&gt;Text" style="ellipse;whiteSpace=wrap;html=1;align=center;labelBackgroundColor=#FFFFFF;" parent="1" vertex="1"><mxGeometry x="330" y="780" width="134.15" height="50" as="geometry"/></mxCell><mxCell id="sMxC_BpVTvGF2aHkU9Yo-48" value="" style="endArrow=none;html=1;rounded=0;fontColor=#000000;labelBackgroundColor=#FFFFFF;" parent="1" source="sMxC_BpVTvGF2aHkU9Yo-47" target="n5WCB7rQCjIqwL3kKHlA-1" edge="1"><mxGeometry relative="1" as="geometry"><mxPoint x="194.59" y="1030" as="sourcePoint"/><mxPoint x="277.59" y="1270" as="targetPoint"/></mxGeometry></mxCell><mxCell id="sMxC_BpVTvGF2aHkU9Yo-49" value="HireDate&lt;br&gt;Text" style="ellipse;whiteSpace=wrap;html=1;align=center;labelBackgroundColor=#FFFFFF;" parent="1" vertex="1"><mxGeometry x="385.5899999999999" y="852.5" width="70" height="50" as="geometry"/></mxCell><mxCell id="sMxC_BpVTvGF2aHkU9Yo-50" value="" style="endArrow=none;html=1;rounded=0;fontColor=#000000;labelBackgroundColor=#FFFFFF;" parent="1" source="sMxC_BpVTvGF2aHkU9Yo-49" target="n5WCB7rQCjIqwL3kKHlA-1" edge="1"><mxGeometry relative="1" as="geometry"><mxPoint x="151.59" y="1089" as="sourcePoint"/><mxPoint x="271.59" y="1270" as="targetPoint"/></mxGeometry></mxCell><mxCell id="sMxC_BpVTvGF2aHkU9Yo-51" value="PhoneNumber&lt;br&gt;Text" style="ellipse;whiteSpace=wrap;html=1;align=center;labelBackgroundColor=#FFFFFF;" parent="1" vertex="1"><mxGeometry x="255" y="860" width="125" height="40" as="geometry"/></mxCell><mxCell id="sMxC_BpVTvGF2aHkU9Yo-52" value="" style="endArrow=none;html=1;rounded=0;fontColor=#000000;labelBackgroundColor=#FFFFFF;" parent="1" source="sMxC_BpVTvGF2aHkU9Yo-51" target="n5WCB7rQCjIqwL3kKHlA-1" edge="1"><mxGeometry relative="1" as="geometry"><mxPoint x="130.59" y="1135" as="sourcePoint"/><mxPoint x="264.59" y="1270" as="targetPoint"/></mxGeometry></mxCell><mxCell id="sMxC_BpVTvGF2aHkU9Yo-55" value="IsLogged&lt;br&gt;Integer" style="ellipse;whiteSpace=wrap;html=1;align=center;labelBackgroundColor=#FFFFFF;" parent="1" vertex="1"><mxGeometry x="301.65999999999997" y="920" width="110" height="40" as="geometry"/></mxCell><mxCell id="sMxC_BpVTvGF2aHkU9Yo-56" value="" style="endArrow=none;html=1;rounded=0;fontColor=#000000;labelBackgroundColor=#FFFFFF;" parent="1" source="sMxC_BpVTvGF2aHkU9Yo-55" target="n5WCB7rQCjIqwL3kKHlA-1" edge="1"><mxGeometry relative="1" as="geometry"><mxPoint x="40.59" y="1157" as="sourcePoint"/><mxPoint x="247.59" y="1270" as="targetPoint"/></mxGeometry></mxCell><mxCell id="sMxC_BpVTvGF2aHkU9Yo-57" value="Management&lt;br&gt;Integer" style="ellipse;whiteSpace=wrap;html=1;align=center;labelBackgroundColor=#FFFFFF;" parent="1" vertex="1"><mxGeometry x="290" y="1620" width="121.25" height="40" as="geometry"/></mxCell><mxCell id="sMxC_BpVTvGF2aHkU9Yo-58" value="" style="endArrow=none;html=1;rounded=0;fontColor=#000000;labelBackgroundColor=#FFFFFF;" parent="1" source="sMxC_BpVTvGF2aHkU9Yo-57" target="sMxC_BpVTvGF2aHkU9Yo-30" edge="1"><mxGeometry relative="1" as="geometry"><mxPoint x="170.24" y="1989" as="sourcePoint"/><mxPoint x="350.24" y="2055" as="targetPoint"/></mxGeometry></mxCell><mxCell id="sMxC_BpVTvGF2aHkU9Yo-59" value="Cancellation&lt;br&gt;Integer" style="ellipse;whiteSpace=wrap;html=1;align=center;labelBackgroundColor=#FFFFFF;" parent="1" vertex="1"><mxGeometry x="191.66" y="1570" width="110" height="40" as="geometry"/></mxCell><mxCell id="sMxC_BpVTvGF2aHkU9Yo-60" value="" style="endArrow=none;html=1;rounded=0;fontColor=#000000;labelBackgroundColor=#FFFFFF;" parent="1" source="sMxC_BpVTvGF2aHkU9Yo-59" target="sMxC_BpVTvGF2aHkU9Yo-30" edge="1"><mxGeometry relative="1" as="geometry"><mxPoint x="185.24" y="2034" as="sourcePoint"/><mxPoint x="326.24" y="2064" as="targetPoint"/></mxGeometry></mxCell><mxCell id="sMxC_BpVTvGF2aHkU9Yo-61" value="Drivers" style="whiteSpace=wrap;html=1;align=center;labelBackgroundColor=#FFFFFF;" parent="1" vertex="1"><mxGeometry x="1096.0900000000001" y="820" width="120" height="40" as="geometry"/></mxCell><mxCell id="sMxC_BpVTvGF2aHkU9Yo-62" value="EmployeeId&lt;br&gt;Text" style="ellipse;whiteSpace=wrap;html=1;align=center;fontStyle=4;labelBackgroundColor=#FFFFFF;" parent="1" vertex="1"><mxGeometry x="1248.54" y="930" width="100" height="40" as="geometry"/></mxCell><mxCell id="sMxC_BpVTvGF2aHkU9Yo-65" value="" style="endArrow=none;html=1;rounded=0;fontColor=#000000;labelBackgroundColor=#FFFFFF;" parent="1" source="sMxC_BpVTvGF2aHkU9Yo-62" target="sMxC_BpVTvGF2aHkU9Yo-61" edge="1"><mxGeometry relative="1" as="geometry"><mxPoint x="1357" y="1400" as="sourcePoint"/><mxPoint x="1270" y="1456" as="targetPoint"/></mxGeometry></mxCell><mxCell id="sMxC_BpVTvGF2aHkU9Yo-90" value="Licenses&lt;br&gt;Integer" style="ellipse;whiteSpace=wrap;html=1;align=center;labelBackgroundColor=#FFFFFF;" parent="1" vertex="1"><mxGeometry x="1351.2500000000002" y="917.5" width="110" height="40" as="geometry"/></mxCell><mxCell id="sMxC_BpVTvGF2aHkU9Yo-91" value="" style="endArrow=none;html=1;rounded=0;fontColor=#000000;labelBackgroundColor=#FFFFFF;" parent="1" source="sMxC_BpVTvGF2aHkU9Yo-90" target="sMxC_BpVTvGF2aHkU9Yo-61" edge="1"><mxGeometry relative="1" as="geometry"><mxPoint x="1019" y="1399" as="sourcePoint"/><mxPoint x="1160" y="1429" as="targetPoint"/></mxGeometry></mxCell><mxCell id="sMxC_BpVTvGF2aHkU9Yo-95" value="EmployeeConstraints" style="whiteSpace=wrap;html=1;align=center;labelBackgroundColor=#FFFFFF;" parent="1" vertex="1"><mxGeometry x="71.02000000000001" y="836.25" width="125" height="50" as="geometry"/></mxCell><mxCell id="sMxC_BpVTvGF2aHkU9Yo-96" value="ConstraintId&lt;br&gt;Integer" style="ellipse;whiteSpace=wrap;html=1;align=center;fontStyle=4;labelBackgroundColor=#FFFFFF;" parent="1" vertex="1"><mxGeometry x="110.00000000000001" y="753.75" width="100" height="40" as="geometry"/></mxCell><mxCell id="sMxC_BpVTvGF2aHkU9Yo-98" value="ShiftId&lt;br&gt;Integer" style="ellipse;whiteSpace=wrap;html=1;align=center;labelBackgroundColor=#FFFFFF;" parent="1" vertex="1"><mxGeometry x="201.66000000000003" y="781.25" width="90" height="40" as="geometry"/></mxCell><mxCell id="sMxC_BpVTvGF2aHkU9Yo-99" value="Description&lt;br&gt;Text" style="ellipse;whiteSpace=wrap;html=1;align=center;labelBackgroundColor=#FFFFFF;" parent="1" vertex="1"><mxGeometry x="7.5" y="780" width="100" height="40" as="geometry"/></mxCell><mxCell id="sMxC_BpVTvGF2aHkU9Yo-101" value="" style="endArrow=none;html=1;rounded=0;fontColor=#000000;labelBackgroundColor=#FFFFFF;" parent="1" source="sMxC_BpVTvGF2aHkU9Yo-96" target="sMxC_BpVTvGF2aHkU9Yo-95" edge="1"><mxGeometry relative="1" as="geometry"><mxPoint x="135.00000000000003" y="1018.75" as="sourcePoint"/><mxPoint x="163.00000000000003" y="928.75" as="targetPoint"/></mxGeometry></mxCell><mxCell id="sMxC_BpVTvGF2aHkU9Yo-102" value="" style="endArrow=none;html=1;rounded=0;fontColor=#000000;labelBackgroundColor=#FFFFFF;" parent="1" source="sMxC_BpVTvGF2aHkU9Yo-99" target="sMxC_BpVTvGF2aHkU9Yo-95" edge="1"><mxGeometry relative="1" as="geometry"><mxPoint x="246.00000000000003" y="885.75" as="sourcePoint"/><mxPoint x="173.00000000000003" y="938.75" as="targetPoint"/></mxGeometry></mxCell><mxCell id="sMxC_BpVTvGF2aHkU9Yo-104" value="ShiftId&lt;br&gt;Integer" style="ellipse;whiteSpace=wrap;html=1;align=center;fontStyle=4;labelBackgroundColor=#FFFFFF;" parent="1" vertex="1"><mxGeometry x="613.7499999999998" y="1310" width="71.25" height="40" as="geometry"/></mxCell><mxCell id="sMxC_BpVTvGF2aHkU9Yo-105" value="Branch&lt;br&gt;Text" style="ellipse;whiteSpace=wrap;html=1;align=center;labelBackgroundColor=#FFFFFF;" parent="1" vertex="1"><mxGeometry x="545" y="1280" width="88.75" height="40" as="geometry"/></mxCell><mxCell id="sMxC_BpVTvGF2aHkU9Yo-108" value="" style="endArrow=none;html=1;rounded=0;fontColor=#000000;labelBackgroundColor=#FFFFFF;" parent="1" source="uhVs8H4B_nVWCRDEAxtj-1" target="sMxC_BpVTvGF2aHkU9Yo-104" edge="1"><mxGeometry relative="1" as="geometry"><mxPoint x="-176" y="1571" as="sourcePoint"/><mxPoint x="-366" y="1624" as="targetPoint"/></mxGeometry></mxCell><mxCell id="sMxC_BpVTvGF2aHkU9Yo-109" value="" style="endArrow=none;html=1;rounded=0;fontColor=#000000;labelBackgroundColor=#FFFFFF;" parent="1" source="sMxC_BpVTvGF2aHkU9Yo-105" target="uhVs8H4B_nVWCRDEAxtj-1" edge="1"><mxGeometry relative="1" as="geometry"><mxPoint x="102" y="1708" as="sourcePoint"/><mxPoint x="44" y="1665" as="targetPoint"/></mxGeometry></mxCell><mxCell id="sMxC_BpVTvGF2aHkU9Yo-117" value="DriverShifts" style="whiteSpace=wrap;html=1;align=center;labelBackgroundColor=#FFFFFF;" parent="1" vertex="1"><mxGeometry x="1413.8700000000003" y="970" width="100" height="40" as="geometry"/></mxCell><mxCell id="sMxC_BpVTvGF2aHkU9Yo-118" value="ShiftId&lt;br&gt;Integer" style="ellipse;whiteSpace=wrap;html=1;align=center;fontStyle=4;labelBackgroundColor=#FFFFFF;" parent="1" vertex="1"><mxGeometry x="1200.0100000000002" y="987.5" width="71.25" height="40" as="geometry"/></mxCell><mxCell id="sMxC_BpVTvGF2aHkU9Yo-119" value="DriversCount&lt;br&gt;Integer" style="ellipse;whiteSpace=wrap;html=1;align=center;labelBackgroundColor=#FFFFFF;" parent="1" vertex="1"><mxGeometry x="1520.7399999999998" y="1010" width="113.13" height="40" as="geometry"/></mxCell><mxCell id="sMxC_BpVTvGF2aHkU9Yo-120" value="Date&lt;br&gt;Text" style="ellipse;whiteSpace=wrap;html=1;align=center;labelBackgroundColor=#FFFFFF;" parent="1" vertex="1"><mxGeometry x="1121.38" y="987.5" width="63.13" height="40" as="geometry"/></mxCell><mxCell id="sMxC_BpVTvGF2aHkU9Yo-121" value="" style="endArrow=none;html=1;rounded=0;fontColor=#000000;labelBackgroundColor=#FFFFFF;" parent="1" source="n5WCB7rQCjIqwL3kKHlA-12" target="sMxC_BpVTvGF2aHkU9Yo-120" edge="1"><mxGeometry relative="1" as="geometry"><mxPoint x="1701.21" y="831" as="sourcePoint"/><mxPoint x="1511.2100000000005" y="884" as="targetPoint"/></mxGeometry></mxCell><mxCell id="sMxC_BpVTvGF2aHkU9Yo-122" value="" style="endArrow=none;html=1;rounded=0;exitX=0.5;exitY=0;exitDx=0;exitDy=0;fontColor=#000000;labelBackgroundColor=#FFFFFF;" parent="1" source="n5WCB7rQCjIqwL3kKHlA-12" target="sMxC_BpVTvGF2aHkU9Yo-118" edge="1"><mxGeometry relative="1" as="geometry"><mxPoint x="1701.21" y="831" as="sourcePoint"/><mxPoint x="1511.2100000000005" y="884" as="targetPoint"/></mxGeometry></mxCell><mxCell id="sMxC_BpVTvGF2aHkU9Yo-123" value="" style="endArrow=none;html=1;rounded=0;fontColor=#000000;labelBackgroundColor=#FFFFFF;" parent="1" source="sMxC_BpVTvGF2aHkU9Yo-119" target="sMxC_BpVTvGF2aHkU9Yo-117" edge="1"><mxGeometry relative="1" as="geometry"><mxPoint x="1458.3187330863816" y="1025.867038745525" as="sourcePoint"/><mxPoint x="1776.3199999999997" y="837.5" as="targetPoint"/></mxGeometry></mxCell><mxCell id="sMxC_BpVTvGF2aHkU9Yo-125" value="EmployeeId&lt;br&gt;Text" style="ellipse;whiteSpace=wrap;html=1;align=center;fontStyle=4;labelBackgroundColor=#FFFFFF;" parent="1" vertex="1"><mxGeometry x="411.06" y="1670" width="100.19" height="50" as="geometry"/></mxCell><mxCell id="sMxC_BpVTvGF2aHkU9Yo-126" value="&lt;u&gt;ProductId&lt;br style=&quot;border-color: var(--border-color);&quot;&gt;Text&lt;/u&gt;" style="ellipse;whiteSpace=wrap;html=1;align=center;labelBackgroundColor=#FFFFFF;" parent="1" vertex="1"><mxGeometry x="487.48999999999984" y="1610" width="96.87" height="40" as="geometry"/></mxCell><mxCell id="sMxC_BpVTvGF2aHkU9Yo-128" value="" style="endArrow=none;html=1;rounded=0;fontColor=#000000;labelBackgroundColor=#FFFFFF;" parent="1" source="sMxC_BpVTvGF2aHkU9Yo-126" target="sMxC_BpVTvGF2aHkU9Yo-125" edge="1"><mxGeometry relative="1" as="geometry"><mxPoint x="529.5419074386151" y="1914.2509742999355" as="sourcePoint"/><mxPoint x="380.0158765039399" y="1876.5497983765194" as="targetPoint"/></mxGeometry></mxCell><mxCell id="sMxC_BpVTvGF2aHkU9Yo-129" value="" style="endArrow=none;html=1;rounded=0;fontColor=#000000;labelBackgroundColor=#FFFFFF;" parent="1" source="n5WCB7rQCjIqwL3kKHlA-31" target="sMxC_BpVTvGF2aHkU9Yo-125" edge="1"><mxGeometry relative="1" as="geometry"><mxPoint x="549.0958449157721" y="1770" as="sourcePoint"/><mxPoint x="518.4699999999999" y="1664" as="targetPoint"/></mxGeometry></mxCell><mxCell id="sMxC_BpVTvGF2aHkU9Yo-130" value="" style="endArrow=none;html=1;rounded=0;fontColor=#000000;labelBackgroundColor=#FFFFFF;" parent="1" source="sMxC_BpVTvGF2aHkU9Yo-126" target="n5WCB7rQCjIqwL3kKHlA-31" edge="1"><mxGeometry relative="1" as="geometry"><mxPoint x="538.4599999999999" y="1825" as="sourcePoint"/><mxPoint x="565.9599999999999" y="1770" as="targetPoint"/></mxGeometry></mxCell><mxCell id="sMxC_BpVTvGF2aHkU9Yo-135" value="Role&lt;br&gt;Text" style="ellipse;whiteSpace=wrap;html=1;align=center;labelBackgroundColor=#FFFFFF;" parent="1" vertex="1"><mxGeometry x="130" y="1550" width="50" height="40" as="geometry"/></mxCell><mxCell id="sMxC_BpVTvGF2aHkU9Yo-137" value="" style="endArrow=none;html=1;rounded=0;fontColor=#000000;labelBackgroundColor=#FFFFFF;" parent="1" source="sMxC_BpVTvGF2aHkU9Yo-135" target="sMxC_BpVTvGF2aHkU9Yo-390" edge="1"><mxGeometry relative="1" as="geometry"><mxPoint x="798.74" y="2045" as="sourcePoint"/><mxPoint x="768.663811570517" y="2012.7" as="targetPoint"/></mxGeometry></mxCell><mxCell id="sMxC_BpVTvGF2aHkU9Yo-138" value="" style="endArrow=none;html=1;rounded=0;fontColor=#000000;labelBackgroundColor=#FFFFFF;" parent="1" source="sMxC_BpVTvGF2aHkU9Yo-140" target="sMxC_BpVTvGF2aHkU9Yo-390" edge="1"><mxGeometry relative="1" as="geometry"><mxPoint x="638.74" y="2045" as="sourcePoint"/><mxPoint x="699.6202816901407" y="2012.957746478873" as="targetPoint"/></mxGeometry></mxCell><mxCell id="sMxC_BpVTvGF2aHkU9Yo-140" value="EmployeeId&lt;br&gt;Text" style="ellipse;whiteSpace=wrap;html=1;align=center;fontStyle=4;labelBackgroundColor=#FFFFFF;" parent="1" vertex="1"><mxGeometry x="5" y="1550" width="105" height="40" as="geometry"/></mxCell><mxCell id="sMxC_BpVTvGF2aHkU9Yo-142" value="DeliveryDate&lt;br&gt;Text" style="ellipse;whiteSpace=wrap;html=1;align=center;labelBackgroundColor=#FFFFFF;" parent="1" vertex="1"><mxGeometry x="1336.88" y="651.25" width="113.12" height="40" as="geometry"/></mxCell><mxCell id="sMxC_BpVTvGF2aHkU9Yo-143" value="" style="endArrow=none;html=1;rounded=0;entryX=0.824;entryY=0.321;entryDx=0;entryDy=0;entryPerimeter=0;fontColor=#000000;labelBackgroundColor=#FFFFFF;" parent="1" source="sMxC_BpVTvGF2aHkU9Yo-142" target="sMxC_BpVTvGF2aHkU9Yo-392" edge="1"><mxGeometry relative="1" as="geometry"><mxPoint x="1032.5100000000002" y="481.25" as="sourcePoint"/><mxPoint x="1050.0049999999997" y="475" as="targetPoint"/></mxGeometry></mxCell><mxCell id="sMxC_BpVTvGF2aHkU9Yo-144" value="" style="endArrow=none;html=1;rounded=0;fontColor=#000000;labelBackgroundColor=#FFFFFF;" parent="1" source="sMxC_BpVTvGF2aHkU9Yo-392" target="sMxC_BpVTvGF2aHkU9Yo-145" edge="1"><mxGeometry relative="1" as="geometry"><mxPoint x="1039.3799999999997" y="441.25" as="sourcePoint"/><mxPoint x="932.0811835334479" y="448.7457118353343" as="targetPoint"/></mxGeometry></mxCell><mxCell id="sMxC_BpVTvGF2aHkU9Yo-145" value="EmployeeId&lt;br&gt;Text" style="ellipse;whiteSpace=wrap;html=1;align=center;fontStyle=4;labelBackgroundColor=#FFFFFF;" parent="1" vertex="1"><mxGeometry x="1220" y="641.25" width="103.75" height="40" as="geometry"/></mxCell><mxCell id="sMxC_BpVTvGF2aHkU9Yo-147" value="Qualification&lt;br&gt;Text" style="ellipse;whiteSpace=wrap;html=1;align=center;labelBackgroundColor=#FFFFFF;" parent="1" vertex="1"><mxGeometry x="1511.25" y="641.25" width="108.75" height="40" as="geometry"/></mxCell><mxCell id="sMxC_BpVTvGF2aHkU9Yo-148" value="" style="endArrow=none;html=1;rounded=0;fontColor=#000000;labelBackgroundColor=#FFFFFF;" parent="1" source="sMxC_BpVTvGF2aHkU9Yo-147" target="sMxC_BpVTvGF2aHkU9Yo-395" edge="1"><mxGeometry relative="1" as="geometry"><mxPoint x="1313.75" y="676.25" as="sourcePoint"/><mxPoint x="1283.673811570517" y="643.95" as="targetPoint"/></mxGeometry></mxCell><mxCell id="sMxC_BpVTvGF2aHkU9Yo-149" value="" style="endArrow=none;html=1;rounded=0;fontColor=#000000;labelBackgroundColor=#FFFFFF;" parent="1" source="sMxC_BpVTvGF2aHkU9Yo-150" target="sMxC_BpVTvGF2aHkU9Yo-395" edge="1"><mxGeometry relative="1" as="geometry"><mxPoint x="1153.75" y="676.25" as="sourcePoint"/><mxPoint x="1209.7282286263903" y="627.08121342598" as="targetPoint"/></mxGeometry></mxCell><mxCell id="sMxC_BpVTvGF2aHkU9Yo-150" value="EmployeeId&lt;br&gt;Text" style="ellipse;whiteSpace=wrap;html=1;align=center;fontStyle=4;labelBackgroundColor=#FFFFFF;" parent="1" vertex="1"><mxGeometry x="1420" y="596.25" width="107.49" height="40" as="geometry"/></mxCell><mxCell id="sMxC_BpVTvGF2aHkU9Yo-152" value="&lt;u&gt;ShiftId&lt;br&gt;Integer&lt;/u&gt;" style="ellipse;whiteSpace=wrap;html=1;align=center;labelBackgroundColor=#FFFFFF;" parent="1" vertex="1"><mxGeometry x="1563.87" y="793.75" width="90" height="40" as="geometry"/></mxCell><mxCell id="sMxC_BpVTvGF2aHkU9Yo-153" value="" style="endArrow=none;html=1;rounded=0;fontColor=#000000;labelBackgroundColor=#FFFFFF;" parent="1" source="sMxC_BpVTvGF2aHkU9Yo-152" target="sMxC_BpVTvGF2aHkU9Yo-396" edge="1"><mxGeometry relative="1" as="geometry"><mxPoint x="672.0000000000001" y="783.75" as="sourcePoint"/><mxPoint x="895.0367289338066" y="749.4670093285163" as="targetPoint"/><Array as="points"/></mxGeometry></mxCell><mxCell id="sMxC_BpVTvGF2aHkU9Yo-154" value="" style="endArrow=none;html=1;rounded=0;fontColor=#000000;labelBackgroundColor=#FFFFFF;" parent="1" source="sMxC_BpVTvGF2aHkU9Yo-155" target="sMxC_BpVTvGF2aHkU9Yo-396" edge="1"><mxGeometry relative="1" as="geometry"><mxPoint x="512" y="783.75" as="sourcePoint"/><mxPoint x="893.4538889028655" y="728.7497484213441" as="targetPoint"/><Array as="points"/></mxGeometry></mxCell><mxCell id="sMxC_BpVTvGF2aHkU9Yo-155" value="EmployeeId&lt;br&gt;Text" style="ellipse;whiteSpace=wrap;html=1;align=center;fontStyle=4;labelBackgroundColor=#FFFFFF;" parent="1" vertex="1"><mxGeometry x="1540" y="948.75" width="110.11" height="40" as="geometry"/></mxCell><mxCell id="sMxC_BpVTvGF2aHkU9Yo-158" value="" style="endArrow=none;html=1;rounded=0;fontColor=#000000;labelBackgroundColor=#FFFFFF;" parent="1" source="sMxC_BpVTvGF2aHkU9Yo-152" target="sMxC_BpVTvGF2aHkU9Yo-155" edge="1"><mxGeometry relative="1" as="geometry"><mxPoint x="765.5000000000001" y="777.75" as="sourcePoint"/><mxPoint x="651.9238115705172" y="761.45" as="targetPoint"/></mxGeometry></mxCell><mxCell id="sMxC_BpVTvGF2aHkU9Yo-159" value="ConstraintId&lt;br style=&quot;border-color: var(--border-color);&quot;&gt;Integer" style="ellipse;whiteSpace=wrap;html=1;align=center;labelBackgroundColor=#FFFFFF;" parent="1" vertex="1"><mxGeometry x="134.99999999999997" y="1020" width="110" height="40" as="geometry"/></mxCell><mxCell id="sMxC_BpVTvGF2aHkU9Yo-160" value="" style="endArrow=none;html=1;rounded=0;fontColor=#000000;labelBackgroundColor=#FFFFFF;" parent="1" source="sMxC_BpVTvGF2aHkU9Yo-159" target="sMxC_BpVTvGF2aHkU9Yo-389" edge="1"><mxGeometry relative="1" as="geometry"><mxPoint x="417.53" y="1405" as="sourcePoint"/><mxPoint x="378.8768634686346" y="1375.7011070110702" as="targetPoint"/></mxGeometry></mxCell><mxCell id="sMxC_BpVTvGF2aHkU9Yo-161" value="" style="endArrow=none;html=1;rounded=0;fontColor=#000000;labelBackgroundColor=#FFFFFF;" parent="1" source="sMxC_BpVTvGF2aHkU9Yo-162" target="sMxC_BpVTvGF2aHkU9Yo-389" edge="1"><mxGeometry relative="1" as="geometry"><mxPoint x="224.62" y="1325" as="sourcePoint"/><mxPoint x="335.077263050345" y="1378.8402104883571" as="targetPoint"/></mxGeometry></mxCell><mxCell id="sMxC_BpVTvGF2aHkU9Yo-162" value="EmployeeId&lt;br&gt;Text" style="ellipse;whiteSpace=wrap;html=1;align=center;fontStyle=4;labelBackgroundColor=#FFFFFF;" parent="1" vertex="1"><mxGeometry x="15" y="1020" width="105" height="40" as="geometry"/></mxCell><mxCell id="sMxC_BpVTvGF2aHkU9Yo-170" value="&lt;u&gt;ShiftId&lt;br style=&quot;border-color: var(--border-color);&quot;&gt;Integer&lt;/u&gt;" style="ellipse;whiteSpace=wrap;html=1;align=center;labelBackgroundColor=#FFFFFF;" parent="1" vertex="1"><mxGeometry x="371.24" y="1330" width="110" height="40" as="geometry"/></mxCell><mxCell id="sMxC_BpVTvGF2aHkU9Yo-171" value="" style="endArrow=none;html=1;rounded=0;fontColor=#000000;labelBackgroundColor=#FFFFFF;" parent="1" source="sMxC_BpVTvGF2aHkU9Yo-170" target="sMxC_BpVTvGF2aHkU9Yo-386" edge="1"><mxGeometry relative="1" as="geometry"><mxPoint x="276.24" y="2210" as="sourcePoint"/><mxPoint x="199.39456832545852" y="2176.1072590047247" as="targetPoint"/></mxGeometry></mxCell><mxCell id="sMxC_BpVTvGF2aHkU9Yo-172" value="" style="endArrow=none;html=1;rounded=0;fontColor=#000000;labelBackgroundColor=#FFFFFF;" parent="1" source="sMxC_BpVTvGF2aHkU9Yo-173" target="sMxC_BpVTvGF2aHkU9Yo-386" edge="1"><mxGeometry relative="1" as="geometry"><mxPoint x="116.24" y="2210" as="sourcePoint"/><mxPoint x="187.2983235051961" y="2183.3650058968824" as="targetPoint"/><Array as="points"/></mxGeometry></mxCell><mxCell id="sMxC_BpVTvGF2aHkU9Yo-173" value="EmployeeId&lt;br&gt;Text" style="ellipse;whiteSpace=wrap;html=1;align=center;fontStyle=4;labelBackgroundColor=#FFFFFF;" parent="1" vertex="1"><mxGeometry x="260" y="1310" width="111.24" height="40" as="geometry"/></mxCell><mxCell id="sMxC_BpVTvGF2aHkU9Yo-175" value="Role&lt;br&gt;Text" style="ellipse;whiteSpace=wrap;html=1;align=center;labelBackgroundColor=#FFFFFF;" parent="1" vertex="1"><mxGeometry x="215.94" y="1340" width="60" height="40" as="geometry"/></mxCell><mxCell id="sMxC_BpVTvGF2aHkU9Yo-176" value="" style="endArrow=none;html=1;rounded=0;fontColor=#000000;labelBackgroundColor=#FFFFFF;" parent="1" source="sMxC_BpVTvGF2aHkU9Yo-175" target="sMxC_BpVTvGF2aHkU9Yo-386" edge="1"><mxGeometry relative="1" as="geometry"><mxPoint x="379.24" y="2122" as="sourcePoint"/><mxPoint x="208.57215547703163" y="2170.600706713781" as="targetPoint"/></mxGeometry></mxCell><mxCell id="sMxC_BpVTvGF2aHkU9Yo-177" value="CountAssigned&lt;br style=&quot;border-color: var(--border-color);&quot;&gt;Integer" style="ellipse;whiteSpace=wrap;html=1;align=center;labelBackgroundColor=#FFFFFF;" parent="1" vertex="1"><mxGeometry x="470" y="1425" width="134.99" height="40" as="geometry"/></mxCell><mxCell id="sMxC_BpVTvGF2aHkU9Yo-179" value="Role&lt;br style=&quot;border-color: var(--border-color);&quot;&gt;Text" style="ellipse;whiteSpace=wrap;html=1;align=center;labelBackgroundColor=#FFFFFF;" parent="1" vertex="1"><mxGeometry x="643.13" y="1480" width="110" height="40" as="geometry"/></mxCell><mxCell id="sMxC_BpVTvGF2aHkU9Yo-180" value="" style="endArrow=none;html=1;rounded=0;fontColor=#000000;labelBackgroundColor=#FFFFFF;" parent="1" source="sMxC_BpVTvGF2aHkU9Yo-179" target="sMxC_BpVTvGF2aHkU9Yo-388" edge="1"><mxGeometry relative="1" as="geometry"><mxPoint x="-31.460000000000036" y="1535" as="sourcePoint"/><mxPoint x="-49.66259295707846" y="1504.5060469528103" as="targetPoint"/></mxGeometry></mxCell><mxCell id="sMxC_BpVTvGF2aHkU9Yo-181" value="" style="endArrow=none;html=1;rounded=0;fontColor=#000000;labelBackgroundColor=#FFFFFF;" parent="1" source="sMxC_BpVTvGF2aHkU9Yo-182" target="sMxC_BpVTvGF2aHkU9Yo-388" edge="1"><mxGeometry relative="1" as="geometry"><mxPoint x="-191.46000000000004" y="1535" as="sourcePoint"/><mxPoint x="-80.42197613818257" y="1509.7883706213006" as="targetPoint"/></mxGeometry></mxCell><mxCell id="sMxC_BpVTvGF2aHkU9Yo-182" value="ShiftId&lt;br&gt;Integer" style="ellipse;whiteSpace=wrap;html=1;align=center;fontStyle=4;labelBackgroundColor=#FFFFFF;" parent="1" vertex="1"><mxGeometry x="725.2299999999998" y="1440" width="92.49" height="40" as="geometry"/></mxCell><mxCell id="sMxC_BpVTvGF2aHkU9Yo-184" value="CountNeeded&lt;br style=&quot;border-color: var(--border-color);&quot;&gt;Integer" style="ellipse;whiteSpace=wrap;html=1;align=center;labelBackgroundColor=#FFFFFF;" parent="1" vertex="1"><mxGeometry x="512.5" y="1470" width="124.38" height="40" as="geometry"/></mxCell><mxCell id="sMxC_BpVTvGF2aHkU9Yo-185" value="" style="endArrow=none;html=1;rounded=0;fontColor=#000000;labelBackgroundColor=#FFFFFF;" parent="1" source="sMxC_BpVTvGF2aHkU9Yo-184" target="sMxC_BpVTvGF2aHkU9Yo-388" edge="1"><mxGeometry relative="1" as="geometry"><mxPoint x="-11.970000000000027" y="1547.5" as="sourcePoint"/><mxPoint x="-28.29975621951212" y="1493.598292682927" as="targetPoint"/></mxGeometry></mxCell><mxCell id="sMxC_BpVTvGF2aHkU9Yo-187" value="Deliveries" style="whiteSpace=wrap;html=1;align=center;labelBackgroundColor=#FFFFFF;" parent="1" vertex="1"><mxGeometry x="1234.38" y="161.25" width="100" height="40" as="geometry"/></mxCell><mxCell id="sMxC_BpVTvGF2aHkU9Yo-189" value="" style="endArrow=none;html=1;rounded=0;entryX=0.25;entryY=0;entryDx=0;entryDy=0;fontColor=#000000;labelBackgroundColor=#FFFFFF;" parent="1" source="sMxC_BpVTvGF2aHkU9Yo-190" target="sMxC_BpVTvGF2aHkU9Yo-187" edge="1"><mxGeometry relative="1" as="geometry"><mxPoint x="1274.38" y="76.25" as="sourcePoint"/><mxPoint x="1274.38" y="146.25" as="targetPoint"/></mxGeometry></mxCell><mxCell id="sMxC_BpVTvGF2aHkU9Yo-190" value="&lt;u&gt;Id&lt;br&gt;Integer&lt;/u&gt;" style="ellipse;whiteSpace=wrap;html=1;align=center;labelBackgroundColor=#FFFFFF;" parent="1" vertex="1"><mxGeometry x="1216.0900000000001" y="20" width="60" height="40" as="geometry"/></mxCell><mxCell id="sMxC_BpVTvGF2aHkU9Yo-191" value="Date&lt;br&gt;Text" style="ellipse;whiteSpace=wrap;html=1;align=center;labelBackgroundColor=#FFFFFF;" parent="1" vertex="1"><mxGeometry x="1294.38" y="16.25" width="70" height="50" as="geometry"/></mxCell><mxCell id="sMxC_BpVTvGF2aHkU9Yo-192" value="" style="endArrow=none;html=1;rounded=0;fontColor=#000000;labelBackgroundColor=#FFFFFF;" parent="1" source="sMxC_BpVTvGF2aHkU9Yo-191" target="sMxC_BpVTvGF2aHkU9Yo-187" edge="1"><mxGeometry relative="1" as="geometry"><mxPoint x="1275.38" y="85.25" as="sourcePoint"/><mxPoint x="1299.38" y="156.25" as="targetPoint"/></mxGeometry></mxCell><mxCell id="sMxC_BpVTvGF2aHkU9Yo-193" value="Time&lt;br&gt;Text" style="ellipse;whiteSpace=wrap;html=1;align=center;labelBackgroundColor=#FFFFFF;" parent="1" vertex="1"><mxGeometry x="1369.38" y="16.25" width="70" height="50" as="geometry"/></mxCell><mxCell id="sMxC_BpVTvGF2aHkU9Yo-194" value="" style="endArrow=none;html=1;rounded=0;fontColor=#000000;labelBackgroundColor=#FFFFFF;" parent="1" source="sMxC_BpVTvGF2aHkU9Yo-193" target="sMxC_BpVTvGF2aHkU9Yo-187" edge="1"><mxGeometry relative="1" as="geometry"><mxPoint x="1336.38" y="76.25" as="sourcePoint"/><mxPoint x="1326.38" y="156.25" as="targetPoint"/></mxGeometry></mxCell><mxCell id="sMxC_BpVTvGF2aHkU9Yo-195" value="Source&lt;br&gt;Text" style="ellipse;whiteSpace=wrap;html=1;align=center;labelBackgroundColor=#FFFFFF;" parent="1" vertex="1"><mxGeometry x="1424.38" y="61.25" width="70" height="50" as="geometry"/></mxCell><mxCell id="sMxC_BpVTvGF2aHkU9Yo-196" value="" style="endArrow=none;html=1;rounded=0;fontColor=#000000;labelBackgroundColor=#FFFFFF;" parent="1" source="sMxC_BpVTvGF2aHkU9Yo-195" target="sMxC_BpVTvGF2aHkU9Yo-187" edge="1"><mxGeometry relative="1" as="geometry"><mxPoint x="1398.38" y="73.25" as="sourcePoint"/><mxPoint x="1374.38" y="136.25" as="targetPoint"/></mxGeometry></mxCell><mxCell id="sMxC_BpVTvGF2aHkU9Yo-197" value="TruckId&lt;br&gt;Integer" style="ellipse;whiteSpace=wrap;html=1;align=center;labelBackgroundColor=#FFFFFF;" parent="1" vertex="1"><mxGeometry x="1464.38" y="111.25" width="70" height="50" as="geometry"/></mxCell><mxCell id="sMxC_BpVTvGF2aHkU9Yo-198" value="" style="endArrow=none;html=1;rounded=0;fontColor=#000000;labelBackgroundColor=#FFFFFF;" parent="1" source="sMxC_BpVTvGF2aHkU9Yo-197" target="sMxC_BpVTvGF2aHkU9Yo-187" edge="1"><mxGeometry relative="1" as="geometry"><mxPoint x="1441.38" y="111.25" as="sourcePoint"/><mxPoint x="1360.38" y="156.25" as="targetPoint"/></mxGeometry></mxCell><mxCell id="sMxC_BpVTvGF2aHkU9Yo-199" value="DriverId&lt;br&gt;Text" style="ellipse;whiteSpace=wrap;html=1;align=center;labelBackgroundColor=#FFFFFF;" parent="1" vertex="1"><mxGeometry x="1494.38" y="159.38" width="70" height="50" as="geometry"/></mxCell><mxCell id="sMxC_BpVTvGF2aHkU9Yo-200" value="" style="endArrow=none;html=1;rounded=0;fontColor=#000000;labelBackgroundColor=#FFFFFF;" parent="1" source="sMxC_BpVTvGF2aHkU9Yo-199" target="sMxC_BpVTvGF2aHkU9Yo-187" edge="1"><mxGeometry relative="1" as="geometry"><mxPoint x="1475.38" y="151.25" as="sourcePoint"/><mxPoint x="1374.38" y="168.25" as="targetPoint"/></mxGeometry></mxCell><mxCell id="sMxC_BpVTvGF2aHkU9Yo-201" value="StartingWeight&lt;br&gt;Real" style="ellipse;whiteSpace=wrap;html=1;align=center;labelBackgroundColor=#FFFFFF;" parent="1" vertex="1"><mxGeometry x="1514.38" y="206.25" width="120" height="50" as="geometry"/></mxCell><mxCell id="sMxC_BpVTvGF2aHkU9Yo-202" value="" style="endArrow=none;html=1;rounded=0;fontColor=#000000;labelBackgroundColor=#FFFFFF;" parent="1" source="sMxC_BpVTvGF2aHkU9Yo-201" target="sMxC_BpVTvGF2aHkU9Yo-187" edge="1"><mxGeometry relative="1" as="geometry"><mxPoint x="1504.38" y="193.25" as="sourcePoint"/><mxPoint x="1374.38" y="181.25" as="targetPoint"/></mxGeometry></mxCell><mxCell id="sMxC_BpVTvGF2aHkU9Yo-203" value="Status&lt;br&gt;Integer" style="ellipse;whiteSpace=wrap;html=1;align=center;labelBackgroundColor=#FFFFFF;" parent="1" vertex="1"><mxGeometry x="1471.88" y="246.25" width="70" height="50" as="geometry"/></mxCell><mxCell id="sMxC_BpVTvGF2aHkU9Yo-204" value="" style="endArrow=none;html=1;rounded=0;fontColor=#000000;labelBackgroundColor=#FFFFFF;" parent="1" source="sMxC_BpVTvGF2aHkU9Yo-203" target="sMxC_BpVTvGF2aHkU9Yo-187" edge="1"><mxGeometry relative="1" as="geometry"><mxPoint x="1504.38" y="193.25" as="sourcePoint"/><mxPoint x="1374.38" y="181.25" as="targetPoint"/></mxGeometry></mxCell><mxCell id="sMxC_BpVTvGF2aHkU9Yo-205" value="maxWeight&lt;br&gt;Real" style="ellipse;whiteSpace=wrap;html=1;align=center;labelBackgroundColor=#FFFFFF;" parent="1" vertex="1"><mxGeometry x="1380" y="256.25" width="85.63" height="50" as="geometry"/></mxCell><mxCell id="sMxC_BpVTvGF2aHkU9Yo-206" value="" style="endArrow=none;html=1;rounded=0;fontColor=#000000;labelBackgroundColor=#FFFFFF;" parent="1" source="sMxC_BpVTvGF2aHkU9Yo-205" target="sMxC_BpVTvGF2aHkU9Yo-187" edge="1"><mxGeometry relative="1" as="geometry"><mxPoint x="1489.38" y="266.25" as="sourcePoint"/><mxPoint x="1361.38" y="196.25" as="targetPoint"/></mxGeometry></mxCell><mxCell id="sMxC_BpVTvGF2aHkU9Yo-207" value="Longtitude&lt;br&gt;Real" style="ellipse;whiteSpace=wrap;html=1;align=center;labelBackgroundColor=#FFFFFF;" parent="1" vertex="1"><mxGeometry x="14.999999999999972" y="557.5" width="80" height="50" as="geometry"/></mxCell><mxCell id="sMxC_BpVTvGF2aHkU9Yo-208" value="" style="endArrow=none;html=1;rounded=0;exitX=0;exitY=0.75;exitDx=0;exitDy=0;fontColor=#000000;labelBackgroundColor=#FFFFFF;" parent="1" source="sMxC_BpVTvGF2aHkU9Yo-5" target="sMxC_BpVTvGF2aHkU9Yo-207" edge="1"><mxGeometry relative="1" as="geometry"><mxPoint x="346.75" y="432.5" as="sourcePoint"/><mxPoint x="348.75" y="502.5" as="targetPoint"/></mxGeometry></mxCell><mxCell id="sMxC_BpVTvGF2aHkU9Yo-209" value="Latitude&lt;br&gt;Real" style="ellipse;whiteSpace=wrap;html=1;align=center;labelBackgroundColor=#FFFFFF;" parent="1" vertex="1"><mxGeometry x="95" y="597.5" width="80" height="50" as="geometry"/></mxCell><mxCell id="sMxC_BpVTvGF2aHkU9Yo-210" value="" style="endArrow=none;html=1;rounded=0;fontColor=#000000;labelBackgroundColor=#FFFFFF;" parent="1" source="sMxC_BpVTvGF2aHkU9Yo-5" target="sMxC_BpVTvGF2aHkU9Yo-209" edge="1"><mxGeometry relative="1" as="geometry"><mxPoint x="323.75" y="542.5" as="sourcePoint"/><mxPoint x="276.75" y="604.5" as="targetPoint"/></mxGeometry></mxCell><mxCell id="sMxC_BpVTvGF2aHkU9Yo-230" value="DeliveryOrders" style="whiteSpace=wrap;html=1;align=center;labelBackgroundColor=#FFFFFF;" parent="1" vertex="1"><mxGeometry x="625.1800000000001" y="350" width="100" height="42.5" as="geometry"/></mxCell><mxCell id="sMxC_BpVTvGF2aHkU9Yo-231" value="" style="endArrow=none;html=1;rounded=0;fontColor=#000000;labelBackgroundColor=#FFFFFF;" parent="1" source="sMxC_BpVTvGF2aHkU9Yo-232" target="sMxC_BpVTvGF2aHkU9Yo-230" edge="1"><mxGeometry relative="1" as="geometry"><mxPoint x="902.6800000000001" y="-220" as="sourcePoint"/><mxPoint x="902.6800000000001" y="-150" as="targetPoint"/></mxGeometry></mxCell><mxCell id="sMxC_BpVTvGF2aHkU9Yo-232" value="&lt;u&gt;Id&lt;br&gt;Integer&lt;/u&gt;" style="ellipse;whiteSpace=wrap;html=1;align=center;labelBackgroundColor=#FFFFFF;" parent="1" vertex="1"><mxGeometry x="651.85" y="255" width="60" height="40" as="geometry"/></mxCell><mxCell id="sMxC_BpVTvGF2aHkU9Yo-233" value="Destination&lt;br&gt;Text" style="ellipse;whiteSpace=wrap;html=1;align=center;labelBackgroundColor=#FFFFFF;" parent="1" vertex="1"><mxGeometry x="720" y="270" width="90" height="50" as="geometry"/></mxCell><mxCell id="sMxC_BpVTvGF2aHkU9Yo-234" value="" style="endArrow=none;html=1;rounded=0;fontColor=#000000;labelBackgroundColor=#FFFFFF;" parent="1" source="sMxC_BpVTvGF2aHkU9Yo-233" target="sMxC_BpVTvGF2aHkU9Yo-230" edge="1"><mxGeometry relative="1" as="geometry"><mxPoint x="903.6800000000001" y="-211" as="sourcePoint"/><mxPoint x="927.6800000000001" y="-140" as="targetPoint"/></mxGeometry></mxCell><mxCell id="sMxC_BpVTvGF2aHkU9Yo-235" value="Source&lt;br&gt;Text" style="ellipse;whiteSpace=wrap;html=1;align=center;labelBackgroundColor=#FFFFFF;" parent="1" vertex="1"><mxGeometry x="755.6200000000001" y="322.5" width="60" height="50" as="geometry"/></mxCell><mxCell id="sMxC_BpVTvGF2aHkU9Yo-236" value="" style="endArrow=none;html=1;rounded=0;fontColor=#000000;labelBackgroundColor=#FFFFFF;" parent="1" source="sMxC_BpVTvGF2aHkU9Yo-235" target="sMxC_BpVTvGF2aHkU9Yo-230" edge="1"><mxGeometry relative="1" as="geometry"><mxPoint x="964.6800000000001" y="-220" as="sourcePoint"/><mxPoint x="954.6800000000001" y="-140" as="targetPoint"/></mxGeometry></mxCell><mxCell id="sMxC_BpVTvGF2aHkU9Yo-237" value="TotalLoadWeight&lt;br&gt;Real" style="ellipse;whiteSpace=wrap;html=1;align=center;labelBackgroundColor=#FFFFFF;" parent="1" vertex="1"><mxGeometry x="711.85" y="403.75" width="111.48" height="55" as="geometry"/></mxCell><mxCell id="sMxC_BpVTvGF2aHkU9Yo-238" value="" style="endArrow=none;html=1;rounded=0;fontColor=#000000;labelBackgroundColor=#FFFFFF;" parent="1" source="sMxC_BpVTvGF2aHkU9Yo-237" target="sMxC_BpVTvGF2aHkU9Yo-230" edge="1"><mxGeometry relative="1" as="geometry"><mxPoint x="1026.68" y="-223" as="sourcePoint"/><mxPoint x="1002.6800000000001" y="-160" as="targetPoint"/></mxGeometry></mxCell><mxCell id="sMxC_BpVTvGF2aHkU9Yo-239" value="Status&lt;br&gt;Integer" style="ellipse;whiteSpace=wrap;html=1;align=center;labelBackgroundColor=#FFFFFF;" parent="1" vertex="1"><mxGeometry x="685.6200000000001" y="458.75" width="70" height="50" as="geometry"/></mxCell><mxCell id="sMxC_BpVTvGF2aHkU9Yo-240" value="" style="endArrow=none;html=1;rounded=0;fontColor=#000000;labelBackgroundColor=#FFFFFF;" parent="1" source="sMxC_BpVTvGF2aHkU9Yo-239" target="sMxC_BpVTvGF2aHkU9Yo-230" edge="1"><mxGeometry relative="1" as="geometry"><mxPoint x="1069.68" y="-185" as="sourcePoint"/><mxPoint x="988.6800000000001" y="-140" as="targetPoint"/></mxGeometry></mxCell><mxCell id="sMxC_BpVTvGF2aHkU9Yo-249" value="ItemDeliveries" style="whiteSpace=wrap;html=1;align=center;labelBackgroundColor=#FFFFFF;" parent="1" vertex="1"><mxGeometry x="948.4" y="171.25" width="100" height="40" as="geometry"/></mxCell><mxCell id="sMxC_BpVTvGF2aHkU9Yo-250" value="" style="endArrow=none;html=1;rounded=0;entryX=0.25;entryY=0;entryDx=0;entryDy=0;fontColor=#000000;labelBackgroundColor=#FFFFFF;" parent="1" source="sMxC_BpVTvGF2aHkU9Yo-251" target="sMxC_BpVTvGF2aHkU9Yo-249" edge="1"><mxGeometry relative="1" as="geometry"><mxPoint x="958.4" y="101.25" as="sourcePoint"/><mxPoint x="958.4" y="171.25" as="targetPoint"/></mxGeometry></mxCell><mxCell id="sMxC_BpVTvGF2aHkU9Yo-251" value="&lt;u&gt;Id&lt;br&gt;Integer&lt;/u&gt;" style="ellipse;whiteSpace=wrap;html=1;align=center;labelBackgroundColor=#FFFFFF;" parent="1" vertex="1"><mxGeometry x="900" y="86.25" width="65.9" height="40" as="geometry"/></mxCell><mxCell id="sMxC_BpVTvGF2aHkU9Yo-252" value="DeliveryId&lt;br&gt;Integer" style="ellipse;whiteSpace=wrap;html=1;align=center;labelBackgroundColor=#FFFFFF;" parent="1" vertex="1"><mxGeometry x="928.4" y="36.25" width="75" height="50" as="geometry"/></mxCell><mxCell id="sMxC_BpVTvGF2aHkU9Yo-253" value="" style="endArrow=none;html=1;rounded=0;fontColor=#000000;labelBackgroundColor=#FFFFFF;" parent="1" source="sMxC_BpVTvGF2aHkU9Yo-252" target="sMxC_BpVTvGF2aHkU9Yo-249" edge="1"><mxGeometry relative="1" as="geometry"><mxPoint x="959.4" y="110.25" as="sourcePoint"/><mxPoint x="983.4" y="181.25" as="targetPoint"/></mxGeometry></mxCell><mxCell id="sMxC_BpVTvGF2aHkU9Yo-254" value="Source&lt;br&gt;Text" style="ellipse;whiteSpace=wrap;html=1;align=center;labelBackgroundColor=#FFFFFF;" parent="1" vertex="1"><mxGeometry x="1003.4" y="11.25" width="60" height="50" as="geometry"/></mxCell><mxCell id="sMxC_BpVTvGF2aHkU9Yo-255" value="" style="endArrow=none;html=1;rounded=0;fontColor=#000000;labelBackgroundColor=#FFFFFF;" parent="1" source="sMxC_BpVTvGF2aHkU9Yo-254" target="sMxC_BpVTvGF2aHkU9Yo-249" edge="1"><mxGeometry relative="1" as="geometry"><mxPoint x="1020.4" y="101.25" as="sourcePoint"/><mxPoint x="1010.4" y="181.25" as="targetPoint"/></mxGeometry></mxCell><mxCell id="sMxC_BpVTvGF2aHkU9Yo-256" value="ItemOrderId&lt;br&gt;Real" style="ellipse;whiteSpace=wrap;html=1;align=center;labelBackgroundColor=#FFFFFF;" parent="1" vertex="1"><mxGeometry x="1067.15" y="8.75" width="83.75" height="55" as="geometry"/></mxCell><mxCell id="sMxC_BpVTvGF2aHkU9Yo-257" value="" style="endArrow=none;html=1;rounded=0;fontColor=#000000;labelBackgroundColor=#FFFFFF;" parent="1" source="sMxC_BpVTvGF2aHkU9Yo-256" target="sMxC_BpVTvGF2aHkU9Yo-249" edge="1"><mxGeometry relative="1" as="geometry"><mxPoint x="1082.4" y="98.25" as="sourcePoint"/><mxPoint x="1058.4" y="161.25" as="targetPoint"/></mxGeometry></mxCell><mxCell id="sMxC_BpVTvGF2aHkU9Yo-259" value="" style="endArrow=none;html=1;rounded=0;fontColor=#000000;labelBackgroundColor=#FFFFFF;" parent="1" source="sMxC_BpVTvGF2aHkU9Yo-260" target="sMxC_BpVTvGF2aHkU9Yo-249" edge="1"><mxGeometry relative="1" as="geometry"><mxPoint x="1118.238422274427" y="108.6277802996766" as="sourcePoint"/><mxPoint x="1044.4" y="181.25" as="targetPoint"/></mxGeometry></mxCell><mxCell id="sMxC_BpVTvGF2aHkU9Yo-260" value="Destination&lt;br&gt;Text" style="ellipse;whiteSpace=wrap;html=1;align=center;labelBackgroundColor=#FFFFFF;" parent="1" vertex="1"><mxGeometry x="1107.15" y="61.25" width="92.85" height="50" as="geometry"/></mxCell><mxCell id="sMxC_BpVTvGF2aHkU9Yo-261" value="Status&lt;br&gt;Integer" style="ellipse;whiteSpace=wrap;html=1;align=center;labelBackgroundColor=#FFFFFF;" parent="1" vertex="1"><mxGeometry x="1112.15" y="116.25" width="70" height="50" as="geometry"/></mxCell><mxCell id="sMxC_BpVTvGF2aHkU9Yo-262" value="" style="endArrow=none;html=1;rounded=0;entryX=1;entryY=0.25;entryDx=0;entryDy=0;fontColor=#000000;labelBackgroundColor=#FFFFFF;" parent="1" source="sMxC_BpVTvGF2aHkU9Yo-261" target="sMxC_BpVTvGF2aHkU9Yo-249" edge="1"><mxGeometry relative="1" as="geometry"><mxPoint x="1129.15" y="114.75" as="sourcePoint"/><mxPoint x="1036.15" y="181.75" as="targetPoint"/></mxGeometry></mxCell><mxCell id="sMxC_BpVTvGF2aHkU9Yo-263" value="ItemOrders" style="whiteSpace=wrap;html=1;align=center;labelBackgroundColor=#FFFFFF;" parent="1" vertex="1"><mxGeometry x="548.95" y="209.38" width="100" height="40" as="geometry"/></mxCell><mxCell id="sMxC_BpVTvGF2aHkU9Yo-264" value="" style="endArrow=none;html=1;rounded=0;fontColor=#000000;labelBackgroundColor=#FFFFFF;" parent="1" target="sMxC_BpVTvGF2aHkU9Yo-263" edge="1"><mxGeometry relative="1" as="geometry"><mxPoint x="494.7467533895433" y="44.80820681736203" as="sourcePoint"/><mxPoint x="568.33" y="176.88" as="targetPoint"/></mxGeometry></mxCell><mxCell id="sMxC_BpVTvGF2aHkU9Yo-265" value="&lt;u&gt;Id&lt;br&gt;Integer&lt;/u&gt;" style="ellipse;whiteSpace=wrap;html=1;align=center;labelBackgroundColor=#FFFFFF;" parent="1" vertex="1"><mxGeometry x="465.20000000000005" y="5.63" width="60" height="40" as="geometry"/></mxCell><mxCell id="sMxC_BpVTvGF2aHkU9Yo-266" value="ItemId&lt;br&gt;Integer" style="ellipse;whiteSpace=wrap;html=1;align=center;labelBackgroundColor=#FFFFFF;" parent="1" vertex="1"><mxGeometry x="527.4800000000001" y="1.88" width="56.88" height="50" as="geometry"/></mxCell><mxCell id="sMxC_BpVTvGF2aHkU9Yo-267" value="" style="endArrow=none;html=1;rounded=0;fontColor=#000000;labelBackgroundColor=#FFFFFF;" parent="1" target="sMxC_BpVTvGF2aHkU9Yo-263" edge="1" source="sMxC_BpVTvGF2aHkU9Yo-266"><mxGeometry relative="1" as="geometry"><mxPoint x="556.0153905095988" y="55.70250712174823" as="sourcePoint"/><mxPoint x="593.33" y="186.88" as="targetPoint"/></mxGeometry></mxCell><mxCell id="sMxC_BpVTvGF2aHkU9Yo-268" value="DeliveryOrderId&lt;br&gt;Integer" style="ellipse;whiteSpace=wrap;html=1;align=center;labelBackgroundColor=#FFFFFF;" parent="1" vertex="1"><mxGeometry x="589.2" y="1.88" width="104.09" height="55.63" as="geometry"/></mxCell><mxCell id="sMxC_BpVTvGF2aHkU9Yo-269" value="" style="endArrow=none;html=1;rounded=0;fontColor=#000000;labelBackgroundColor=#FFFFFF;" parent="1" target="sMxC_BpVTvGF2aHkU9Yo-263" edge="1" source="sMxC_BpVTvGF2aHkU9Yo-268"><mxGeometry relative="1" as="geometry"><mxPoint x="633.7146385980197" y="56.79309613148815" as="sourcePoint"/><mxPoint x="620.33" y="186.88" as="targetPoint"/></mxGeometry></mxCell><mxCell id="sMxC_BpVTvGF2aHkU9Yo-270" value="" style="endArrow=none;html=1;rounded=0;fontColor=#000000;labelBackgroundColor=#FFFFFF;" parent="1" source="sMxC_BpVTvGF2aHkU9Yo-275" target="sMxC_BpVTvGF2aHkU9Yo-263" edge="1"><mxGeometry relative="1" as="geometry"><mxPoint x="701.08" y="66.38" as="sourcePoint"/><mxPoint x="668.33" y="166.88" as="targetPoint"/></mxGeometry></mxCell><mxCell id="sMxC_BpVTvGF2aHkU9Yo-271" value="" style="endArrow=none;html=1;rounded=0;fontColor=#000000;labelBackgroundColor=#FFFFFF;" parent="1" target="sMxC_BpVTvGF2aHkU9Yo-263" edge="1" source="sMxC_BpVTvGF2aHkU9Yo-272"><mxGeometry relative="1" as="geometry"><mxPoint x="749.5271232958064" y="101.53556506159282" as="sourcePoint"/><mxPoint x="654.33" y="186.88" as="targetPoint"/></mxGeometry></mxCell><mxCell id="sMxC_BpVTvGF2aHkU9Yo-272" value="Destination&lt;br&gt;Text" style="ellipse;whiteSpace=wrap;html=1;align=center;labelBackgroundColor=#FFFFFF;" parent="1" vertex="1"><mxGeometry x="729.72" y="66.25" width="83.52" height="53.75" as="geometry"/></mxCell><mxCell id="sMxC_BpVTvGF2aHkU9Yo-273" value="Status&lt;br&gt;Integer" style="ellipse;whiteSpace=wrap;html=1;align=center;labelBackgroundColor=#FFFFFF;" parent="1" vertex="1"><mxGeometry x="743.24" y="126.25" width="70" height="50" as="geometry"/></mxCell><mxCell id="sMxC_BpVTvGF2aHkU9Yo-274" value="" style="endArrow=none;html=1;rounded=0;entryX=1;entryY=0.25;entryDx=0;entryDy=0;fontColor=#000000;labelBackgroundColor=#FFFFFF;" parent="1" target="sMxC_BpVTvGF2aHkU9Yo-263" edge="1" source="sMxC_BpVTvGF2aHkU9Yo-273"><mxGeometry relative="1" as="geometry"><mxPoint x="731.4930656115" y="163.93795625900043" as="sourcePoint"/><mxPoint x="646.08" y="187.38" as="targetPoint"/></mxGeometry></mxCell><mxCell id="sMxC_BpVTvGF2aHkU9Yo-275" value="Source&lt;br&gt;Text" style="ellipse;whiteSpace=wrap;html=1;align=center;labelBackgroundColor=#FFFFFF;" parent="1" vertex="1"><mxGeometry x="697.0000000000001" y="21.88" width="60" height="50" as="geometry"/></mxCell><mxCell id="sMxC_BpVTvGF2aHkU9Yo-276" value="Quantity&lt;br&gt;Integer" style="ellipse;whiteSpace=wrap;html=1;align=center;labelBackgroundColor=#FFFFFF;" parent="1" vertex="1"><mxGeometry x="386.4500000000001" y="11.879999999999999" width="60" height="50" as="geometry"/></mxCell><mxCell id="sMxC_BpVTvGF2aHkU9Yo-277" value="" style="endArrow=none;html=1;rounded=0;fontColor=#000000;labelBackgroundColor=#FFFFFF;" parent="1" source="sMxC_BpVTvGF2aHkU9Yo-276" target="sMxC_BpVTvGF2aHkU9Yo-263" edge="1"><mxGeometry relative="1" as="geometry"><mxPoint x="503.45000000000005" y="55.38" as="sourcePoint"/><mxPoint x="593.45" y="187.38" as="targetPoint"/></mxGeometry></mxCell><mxCell id="sMxC_BpVTvGF2aHkU9Yo-279" value="Refrigeration&lt;br&gt;Integer" style="ellipse;whiteSpace=wrap;html=1;align=center;labelBackgroundColor=#FFFFFF;" parent="1" vertex="1"><mxGeometry x="330" y="61.88" width="92.7" height="48.12" as="geometry"/></mxCell><mxCell id="sMxC_BpVTvGF2aHkU9Yo-280" value="" style="endArrow=none;html=1;rounded=0;fontColor=#000000;labelBackgroundColor=#FFFFFF;" parent="1" source="sMxC_BpVTvGF2aHkU9Yo-279" target="sMxC_BpVTvGF2aHkU9Yo-263" edge="1"><mxGeometry relative="1" as="geometry"><mxPoint x="447.45000000000005" y="64.38" as="sourcePoint"/><mxPoint x="594.45" y="187.38" as="targetPoint"/></mxGeometry></mxCell><mxCell id="sMxC_BpVTvGF2aHkU9Yo-281" value="ItemDelivery1IdInteger&lt;br&gt;Integer" style="ellipse;whiteSpace=wrap;html=1;align=center;labelBackgroundColor=#FFFFFF;" parent="1" vertex="1"><mxGeometry x="280" y="120.63" width="152.5" height="50" as="geometry"/></mxCell><mxCell id="sMxC_BpVTvGF2aHkU9Yo-283" value="ItemDelivery2IdInteger&lt;br&gt;Integer" style="ellipse;whiteSpace=wrap;html=1;align=center;labelBackgroundColor=#FFFFFF;" parent="1" vertex="1"><mxGeometry x="306.45" y="171.88" width="152.5" height="50" as="geometry"/></mxCell><mxCell id="sMxC_BpVTvGF2aHkU9Yo-284" value="" style="endArrow=none;html=1;rounded=0;fontColor=#000000;labelBackgroundColor=#FFFFFF;" parent="1" target="sMxC_BpVTvGF2aHkU9Yo-263" edge="1"><mxGeometry relative="1" as="geometry"><mxPoint x="418.2244270189567" y="159.66525405247933" as="sourcePoint"/><mxPoint x="577.45" y="187.38" as="targetPoint"/></mxGeometry></mxCell><mxCell id="sMxC_BpVTvGF2aHkU9Yo-285" value="" style="endArrow=none;html=1;rounded=0;fontColor=#000000;labelBackgroundColor=#FFFFFF;" parent="1" source="sMxC_BpVTvGF2aHkU9Yo-283" target="sMxC_BpVTvGF2aHkU9Yo-263" edge="1"><mxGeometry relative="1" as="geometry"><mxPoint x="428.45000000000005" y="169.38" as="sourcePoint"/><mxPoint x="556.45" y="199.38" as="targetPoint"/></mxGeometry></mxCell><mxCell id="sMxC_BpVTvGF2aHkU9Yo-286" value="Trucks" style="whiteSpace=wrap;html=1;align=center;labelBackgroundColor=#FFFFFF;" parent="1" vertex="1"><mxGeometry x="1293.13" y="355" width="100" height="40" as="geometry"/></mxCell><mxCell id="sMxC_BpVTvGF2aHkU9Yo-287" value="" style="endArrow=none;html=1;rounded=0;fontColor=#000000;labelBackgroundColor=#FFFFFF;" parent="1" source="sMxC_BpVTvGF2aHkU9Yo-304" target="sMxC_BpVTvGF2aHkU9Yo-286" edge="1"><mxGeometry relative="1" as="geometry"><mxPoint x="1322" y="359.5" as="sourcePoint"/><mxPoint x="1320" y="445" as="targetPoint"/></mxGeometry></mxCell><mxCell id="sMxC_BpVTvGF2aHkU9Yo-288" value="Type&lt;br&gt;Text" style="ellipse;whiteSpace=wrap;html=1;align=center;labelBackgroundColor=#FFFFFF;" parent="1" vertex="1"><mxGeometry x="1466.25" y="515" width="70" height="50" as="geometry"/></mxCell><mxCell id="sMxC_BpVTvGF2aHkU9Yo-289" value="" style="endArrow=none;html=1;rounded=0;fontColor=#000000;labelBackgroundColor=#FFFFFF;" parent="1" source="sMxC_BpVTvGF2aHkU9Yo-288" target="sMxC_BpVTvGF2aHkU9Yo-286" edge="1"><mxGeometry relative="1" as="geometry"><mxPoint x="1311" y="344" as="sourcePoint"/><mxPoint x="1335" y="415" as="targetPoint"/></mxGeometry></mxCell><mxCell id="sMxC_BpVTvGF2aHkU9Yo-290" value="Model&lt;br&gt;Text" style="ellipse;whiteSpace=wrap;html=1;align=center;labelBackgroundColor=#FFFFFF;" parent="1" vertex="1"><mxGeometry x="1555" y="495" width="70" height="50" as="geometry"/></mxCell><mxCell id="sMxC_BpVTvGF2aHkU9Yo-291" value="" style="endArrow=none;html=1;rounded=0;fontColor=#000000;labelBackgroundColor=#FFFFFF;" parent="1" source="sMxC_BpVTvGF2aHkU9Yo-290" target="sMxC_BpVTvGF2aHkU9Yo-286" edge="1"><mxGeometry relative="1" as="geometry"><mxPoint x="1372" y="335" as="sourcePoint"/><mxPoint x="1362" y="415" as="targetPoint"/></mxGeometry></mxCell><mxCell id="sMxC_BpVTvGF2aHkU9Yo-292" value="NetWeight&lt;br&gt;Real" style="ellipse;whiteSpace=wrap;html=1;align=center;labelBackgroundColor=#FFFFFF;" parent="1" vertex="1"><mxGeometry x="1510" y="320" width="80" height="50" as="geometry"/></mxCell><mxCell id="sMxC_BpVTvGF2aHkU9Yo-293" value="" style="endArrow=none;html=1;rounded=0;fontColor=#000000;labelBackgroundColor=#FFFFFF;" parent="1" source="sMxC_BpVTvGF2aHkU9Yo-292" target="sMxC_BpVTvGF2aHkU9Yo-286" edge="1"><mxGeometry relative="1" as="geometry"><mxPoint x="1434" y="332" as="sourcePoint"/><mxPoint x="1410" y="395" as="targetPoint"/></mxGeometry></mxCell><mxCell id="sMxC_BpVTvGF2aHkU9Yo-294" value="MaxWeight&lt;br&gt;Real" style="ellipse;whiteSpace=wrap;html=1;align=center;labelBackgroundColor=#FFFFFF;" parent="1" vertex="1"><mxGeometry x="1535" y="370" width="95" height="50" as="geometry"/></mxCell><mxCell id="sMxC_BpVTvGF2aHkU9Yo-295" value="" style="endArrow=none;html=1;rounded=0;fontColor=#000000;labelBackgroundColor=#FFFFFF;" parent="1" source="sMxC_BpVTvGF2aHkU9Yo-294" target="sMxC_BpVTvGF2aHkU9Yo-286" edge="1"><mxGeometry relative="1" as="geometry"><mxPoint x="1477" y="370" as="sourcePoint"/><mxPoint x="1396" y="415" as="targetPoint"/></mxGeometry></mxCell><mxCell id="sMxC_BpVTvGF2aHkU9Yo-300" value="Status&lt;br&gt;Integer" style="ellipse;whiteSpace=wrap;html=1;align=center;labelBackgroundColor=#FFFFFF;" parent="1" vertex="1"><mxGeometry x="1510" y="425" width="70" height="50" as="geometry"/></mxCell><mxCell id="sMxC_BpVTvGF2aHkU9Yo-301" value="" style="endArrow=none;html=1;rounded=0;fontColor=#000000;labelBackgroundColor=#FFFFFF;" parent="1" source="sMxC_BpVTvGF2aHkU9Yo-300" target="sMxC_BpVTvGF2aHkU9Yo-286" edge="1"><mxGeometry relative="1" as="geometry"><mxPoint x="1540" y="452" as="sourcePoint"/><mxPoint x="1410" y="440" as="targetPoint"/></mxGeometry></mxCell><mxCell id="sMxC_BpVTvGF2aHkU9Yo-304" value="&lt;u&gt;Id&lt;br&gt;Integer&lt;/u&gt;" style="ellipse;whiteSpace=wrap;html=1;align=center;labelBackgroundColor=#FFFFFF;" parent="1" vertex="1"><mxGeometry x="1433.87" y="305" width="60" height="40" as="geometry"/></mxCell><mxCell id="sMxC_BpVTvGF2aHkU9Yo-306" value="&lt;u&gt;TruckId&lt;br&gt;Integer&lt;/u&gt;" style="ellipse;whiteSpace=wrap;html=1;align=center;labelBackgroundColor=#FFFFFF;" parent="1" vertex="1"><mxGeometry x="1260" y="575" width="71.26" height="40" as="geometry"/></mxCell><mxCell id="sMxC_BpVTvGF2aHkU9Yo-307" value="&lt;u&gt;Date&lt;br&gt;Text&lt;/u&gt;" style="ellipse;whiteSpace=wrap;html=1;align=center;labelBackgroundColor=#FFFFFF;" parent="1" vertex="1"><mxGeometry x="1350" y="565" width="70" height="50" as="geometry"/></mxCell><mxCell id="sMxC_BpVTvGF2aHkU9Yo-308" value="" style="endArrow=none;html=1;rounded=0;fontColor=#000000;labelBackgroundColor=#FFFFFF;" parent="1" source="sMxC_BpVTvGF2aHkU9Yo-307" edge="1"><mxGeometry relative="1" as="geometry"><mxPoint x="1632.13" y="632" as="sourcePoint"/><mxPoint x="1353.9082333177275" y="529.5793285781169" as="targetPoint"/></mxGeometry></mxCell><mxCell id="sMxC_BpVTvGF2aHkU9Yo-309" value="" style="endArrow=none;html=1;rounded=0;fontColor=#000000;labelBackgroundColor=#FFFFFF;" parent="1" source="sMxC_BpVTvGF2aHkU9Yo-306" edge="1"><mxGeometry relative="1" as="geometry"><mxPoint x="1329.13" y="615" as="sourcePoint"/><mxPoint x="1330.06" y="530.2" as="targetPoint"/></mxGeometry></mxCell><mxCell id="sMxC_BpVTvGF2aHkU9Yo-310" value="Stops" style="whiteSpace=wrap;html=1;align=center;labelBackgroundColor=#FFFFFF;" parent="1" vertex="1"><mxGeometry x="938.59" y="390" width="100" height="40" as="geometry"/></mxCell><mxCell id="sMxC_BpVTvGF2aHkU9Yo-311" value="&lt;u&gt;Id&lt;br&gt;Integer&lt;/u&gt;" style="ellipse;whiteSpace=wrap;html=1;align=center;labelBackgroundColor=#FFFFFF;" parent="1" vertex="1"><mxGeometry x="878.59" y="478.75" width="60" height="40" as="geometry"/></mxCell><mxCell id="sMxC_BpVTvGF2aHkU9Yo-312" value="" style="endArrow=none;html=1;rounded=0;fontColor=#000000;labelBackgroundColor=#FFFFFF;" parent="1" source="sMxC_BpVTvGF2aHkU9Yo-311" target="sMxC_BpVTvGF2aHkU9Yo-310" edge="1"><mxGeometry relative="1" as="geometry"><mxPoint x="1006.59" y="307.5" as="sourcePoint"/><mxPoint x="948.59" y="356.5" as="targetPoint"/></mxGeometry></mxCell><mxCell id="sMxC_BpVTvGF2aHkU9Yo-313" value="DeliveryId&lt;br&gt;Integer" style="ellipse;whiteSpace=wrap;html=1;align=center;labelBackgroundColor=#FFFFFF;" parent="1" vertex="1"><mxGeometry x="948.4" y="490" width="70" height="50" as="geometry"/></mxCell><mxCell id="sMxC_BpVTvGF2aHkU9Yo-314" value="" style="endArrow=none;html=1;rounded=0;fontColor=#000000;labelBackgroundColor=#FFFFFF;" parent="1" source="sMxC_BpVTvGF2aHkU9Yo-313" target="sMxC_BpVTvGF2aHkU9Yo-310" edge="1"><mxGeometry relative="1" as="geometry"><mxPoint x="1532.5900000000001" y="562" as="sourcePoint"/><mxPoint x="1431.5900000000001" y="485" as="targetPoint"/></mxGeometry></mxCell><mxCell id="sMxC_BpVTvGF2aHkU9Yo-315" value="Destination&lt;br&gt;Text" style="ellipse;whiteSpace=wrap;html=1;align=center;labelBackgroundColor=#FFFFFF;" parent="1" vertex="1"><mxGeometry x="1027.34" y="482.5" width="82.66" height="50" as="geometry"/></mxCell><mxCell id="sMxC_BpVTvGF2aHkU9Yo-316" value="" style="endArrow=none;html=1;rounded=0;fontColor=#000000;labelBackgroundColor=#FFFFFF;" parent="1" source="sMxC_BpVTvGF2aHkU9Yo-315" target="sMxC_BpVTvGF2aHkU9Yo-310" edge="1"><mxGeometry relative="1" as="geometry"><mxPoint x="1002.59" y="485" as="sourcePoint"/><mxPoint x="999.59" y="415" as="targetPoint"/></mxGeometry></mxCell><mxCell id="sMxC_BpVTvGF2aHkU9Yo-317" value="Status&lt;br&gt;Integer" style="ellipse;whiteSpace=wrap;html=1;align=center;labelBackgroundColor=#FFFFFF;" parent="1" vertex="1"><mxGeometry x="1096.0900000000001" y="445" width="70" height="50" as="geometry"/></mxCell><mxCell id="sMxC_BpVTvGF2aHkU9Yo-318" value="" style="endArrow=none;html=1;rounded=0;fontColor=#000000;labelBackgroundColor=#FFFFFF;" parent="1" source="sMxC_BpVTvGF2aHkU9Yo-317" target="sMxC_BpVTvGF2aHkU9Yo-310" edge="1"><mxGeometry relative="1" as="geometry"><mxPoint x="1543.5900000000001" y="267" as="sourcePoint"/><mxPoint x="1415.5900000000001" y="198" as="targetPoint"/></mxGeometry></mxCell><mxCell id="sMxC_BpVTvGF2aHkU9Yo-319" value="ArriveTime&lt;br&gt;Text" style="ellipse;whiteSpace=wrap;html=1;align=center;labelBackgroundColor=#FFFFFF;" parent="1" vertex="1"><mxGeometry x="840" y="420" width="74.84" height="50" as="geometry"/></mxCell><mxCell id="sMxC_BpVTvGF2aHkU9Yo-320" value="" style="endArrow=none;html=1;rounded=0;fontColor=#000000;labelBackgroundColor=#FFFFFF;" parent="1" source="sMxC_BpVTvGF2aHkU9Yo-319" target="sMxC_BpVTvGF2aHkU9Yo-310" edge="1"><mxGeometry relative="1" as="geometry"><mxPoint x="947.59" y="496" as="sourcePoint"/><mxPoint x="988.59" y="415" as="targetPoint"/></mxGeometry></mxCell><mxCell id="sMxC_BpVTvGF2aHkU9Yo-321" value="Sites" style="whiteSpace=wrap;html=1;align=center;labelBackgroundColor=#FFFFFF;" parent="1" vertex="1"><mxGeometry x="581.61" y="508.75" width="100" height="40" as="geometry"/></mxCell><mxCell id="sMxC_BpVTvGF2aHkU9Yo-322" value="Address&lt;br&gt;Text" style="ellipse;whiteSpace=wrap;html=1;align=center;fontStyle=4;labelBackgroundColor=#FFFFFF;" parent="1" vertex="1"><mxGeometry x="655.74" y="677.5" width="71.84" height="40" as="geometry"/></mxCell><mxCell id="sMxC_BpVTvGF2aHkU9Yo-323" value="PhoneNumber&lt;br&gt;Text" style="ellipse;whiteSpace=wrap;html=1;align=center;labelBackgroundColor=#FFFFFF;" parent="1" vertex="1"><mxGeometry x="709.69" y="627.5" width="105.93" height="50" as="geometry"/></mxCell><mxCell id="sMxC_BpVTvGF2aHkU9Yo-324" value="ContactNumber&lt;br&gt;Text" style="ellipse;whiteSpace=wrap;html=1;align=center;labelBackgroundColor=#FFFFFF;" parent="1" vertex="1"><mxGeometry x="524.6" y="681.25" width="115.18" height="50" as="geometry"/></mxCell><mxCell id="sMxC_BpVTvGF2aHkU9Yo-325" value="Region&lt;br&gt;Integer" style="ellipse;whiteSpace=wrap;html=1;align=center;labelBackgroundColor=#FFFFFF;" parent="1" vertex="1"><mxGeometry x="740.07" y="565" width="60" height="50" as="geometry"/></mxCell><mxCell id="sMxC_BpVTvGF2aHkU9Yo-326" value="Type&lt;br&gt;Integer" style="ellipse;whiteSpace=wrap;html=1;align=center;labelBackgroundColor=#FFFFFF;" parent="1" vertex="1"><mxGeometry x="411.66" y="560.63" width="55" height="43.75" as="geometry"/></mxCell><mxCell id="sMxC_BpVTvGF2aHkU9Yo-331" value="" style="endArrow=none;html=1;rounded=0;fontColor=#000000;labelBackgroundColor=#FFFFFF;" parent="1" source="sMxC_BpVTvGF2aHkU9Yo-324" target="sMxC_BpVTvGF2aHkU9Yo-321" edge="1"><mxGeometry relative="1" as="geometry"><mxPoint x="631.36" y="718.75" as="sourcePoint"/><mxPoint x="591.61" y="498.75" as="targetPoint"/></mxGeometry></mxCell><mxCell id="sMxC_BpVTvGF2aHkU9Yo-332" value="" style="endArrow=none;html=1;rounded=0;fontColor=#000000;labelBackgroundColor=#FFFFFF;" parent="1" source="sMxC_BpVTvGF2aHkU9Yo-323" target="sMxC_BpVTvGF2aHkU9Yo-321" edge="1"><mxGeometry relative="1" as="geometry"><mxPoint x="737.5898465805993" y="709.8638126928734" as="sourcePoint"/><mxPoint x="705.61" y="508.75" as="targetPoint"/></mxGeometry></mxCell><mxCell id="sMxC_BpVTvGF2aHkU9Yo-333" value="" style="endArrow=none;html=1;rounded=0;fontColor=#000000;labelBackgroundColor=#FFFFFF;" parent="1" target="sMxC_BpVTvGF2aHkU9Yo-321" edge="1" source="sMxC_BpVTvGF2aHkU9Yo-325"><mxGeometry relative="1" as="geometry"><mxPoint x="692.49" y="648.75" as="sourcePoint"/><mxPoint x="691.61" y="508.75" as="targetPoint"/></mxGeometry></mxCell><mxCell id="sMxC_BpVTvGF2aHkU9Yo-334" value="" style="endArrow=none;html=1;rounded=0;fontColor=#000000;labelBackgroundColor=#FFFFFF;" parent="1" source="sMxC_BpVTvGF2aHkU9Yo-322" target="sMxC_BpVTvGF2aHkU9Yo-321" edge="1"><mxGeometry relative="1" as="geometry"><mxPoint x="751.61" y="458.75" as="sourcePoint"/><mxPoint x="702.61" y="530.75" as="targetPoint"/></mxGeometry></mxCell><mxCell id="sMxC_BpVTvGF2aHkU9Yo-335" value="" style="endArrow=none;html=1;rounded=0;fontColor=#000000;labelBackgroundColor=#FFFFFF;" parent="1" source="sMxC_BpVTvGF2aHkU9Yo-326" target="sMxC_BpVTvGF2aHkU9Yo-321" edge="1"><mxGeometry relative="1" as="geometry"><mxPoint x="510.5494090567274" y="654.8826949949664" as="sourcePoint"/><mxPoint x="666.74" y="551.25" as="targetPoint"/></mxGeometry></mxCell><mxCell id="sMxC_BpVTvGF2aHkU9Yo-340" value="Longtitude&lt;br&gt;Real" style="ellipse;whiteSpace=wrap;html=1;align=center;labelBackgroundColor=#FFFFFF;" parent="1" vertex="1"><mxGeometry x="415" y="610" width="80" height="50" as="geometry"/></mxCell><mxCell id="sMxC_BpVTvGF2aHkU9Yo-341" value="" style="endArrow=none;html=1;rounded=0;exitX=0.25;exitY=1;exitDx=0;exitDy=0;fontColor=#000000;labelBackgroundColor=#FFFFFF;" parent="1" source="sMxC_BpVTvGF2aHkU9Yo-321" edge="1" target="sMxC_BpVTvGF2aHkU9Yo-340"><mxGeometry relative="1" as="geometry"><mxPoint x="639.61" y="448.75" as="sourcePoint"/><mxPoint x="542.49" y="578.75" as="targetPoint"/></mxGeometry></mxCell><mxCell id="sMxC_BpVTvGF2aHkU9Yo-342" value="Latitude&lt;br&gt;Real" style="ellipse;whiteSpace=wrap;html=1;align=center;labelBackgroundColor=#FFFFFF;" parent="1" vertex="1"><mxGeometry x="432.5" y="667.5" width="80" height="50" as="geometry"/></mxCell><mxCell id="sMxC_BpVTvGF2aHkU9Yo-343" value="" style="endArrow=none;html=1;rounded=0;fontColor=#000000;labelBackgroundColor=#FFFFFF;" parent="1" source="sMxC_BpVTvGF2aHkU9Yo-321" target="sMxC_BpVTvGF2aHkU9Yo-342" edge="1"><mxGeometry relative="1" as="geometry"><mxPoint x="616.61" y="558.75" as="sourcePoint"/><mxPoint x="569.61" y="620.75" as="targetPoint"/></mxGeometry></mxCell><mxCell id="sMxC_BpVTvGF2aHkU9Yo-346" value="&lt;u&gt;StopId&lt;br&gt;Integer&lt;/u&gt;" style="ellipse;whiteSpace=wrap;html=1;align=center;labelBackgroundColor=#FFFFFF;" parent="1" vertex="1"><mxGeometry x="844.8400000000003" y="332.5" width="60" height="40" as="geometry"/></mxCell><mxCell id="sMxC_BpVTvGF2aHkU9Yo-347" value="&lt;u&gt;ItemDelivery&lt;br&gt;Integer&lt;br&gt;&lt;/u&gt;" style="ellipse;whiteSpace=wrap;html=1;align=center;labelBackgroundColor=#FFFFFF;" parent="1" vertex="1"><mxGeometry x="833.9100000000002" y="166.25" width="91.87" height="50" as="geometry"/></mxCell><mxCell id="sMxC_BpVTvGF2aHkU9Yo-348" value="" style="endArrow=none;html=1;rounded=0;fontColor=#000000;labelBackgroundColor=#FFFFFF;" parent="1" source="sMxC_BpVTvGF2aHkU9Yo-347" edge="1"><mxGeometry relative="1" as="geometry"><mxPoint x="1282.5900000000001" y="402" as="sourcePoint"/><mxPoint x="914.0336624499308" y="318.7615696213991" as="targetPoint"/></mxGeometry></mxCell><mxCell id="sMxC_BpVTvGF2aHkU9Yo-349" value="" style="endArrow=none;html=1;rounded=0;fontColor=#000000;labelBackgroundColor=#FFFFFF;" parent="1" source="sMxC_BpVTvGF2aHkU9Yo-346" edge="1"><mxGeometry relative="1" as="geometry"><mxPoint x="979.5900000000003" y="385" as="sourcePoint"/><mxPoint x="886.9325398386208" y="307.1468027879805" as="targetPoint"/></mxGeometry></mxCell><mxCell id="sMxC_BpVTvGF2aHkU9Yo-351" value="&lt;u&gt;StopId&lt;br&gt;Integer&lt;/u&gt;" style="ellipse;whiteSpace=wrap;html=1;align=center;labelBackgroundColor=#FFFFFF;" parent="1" vertex="1"><mxGeometry x="1168.0000000000002" y="202" width="60" height="40" as="geometry"/></mxCell><mxCell id="sMxC_BpVTvGF2aHkU9Yo-352" value="&lt;u&gt;ItemDelivery&lt;br&gt;Integer&lt;br&gt;&lt;/u&gt;" style="ellipse;whiteSpace=wrap;html=1;align=center;labelBackgroundColor=#FFFFFF;" parent="1" vertex="1"><mxGeometry x="1067.65" y="199.38" width="91.87" height="50" as="geometry"/></mxCell><mxCell id="sMxC_BpVTvGF2aHkU9Yo-353" value="" style="endArrow=none;html=1;rounded=0;fontColor=#000000;labelBackgroundColor=#FFFFFF;" parent="1" source="sMxC_BpVTvGF2aHkU9Yo-352" target="sMxC_BpVTvGF2aHkU9Yo-398" edge="1"><mxGeometry relative="1" as="geometry"><mxPoint x="1415.0900000000001" y="437" as="sourcePoint"/><mxPoint x="1105.9611505423218" y="319.2304930895664" as="targetPoint"/></mxGeometry></mxCell><mxCell id="sMxC_BpVTvGF2aHkU9Yo-354" value="" style="endArrow=none;html=1;rounded=0;fontColor=#000000;labelBackgroundColor=#FFFFFF;" parent="1" source="sMxC_BpVTvGF2aHkU9Yo-351" target="sMxC_BpVTvGF2aHkU9Yo-398" edge="1"><mxGeometry relative="1" as="geometry"><mxPoint x="1112.0900000000001" y="420" as="sourcePoint"/><mxPoint x="1097.1015606936417" y="344.5664739884394" as="targetPoint"/></mxGeometry></mxCell><mxCell id="sMxC_BpVTvGF2aHkU9Yo-356" value="Address&lt;br&gt;Text" style="ellipse;whiteSpace=wrap;html=1;align=center;fontStyle=4;labelBackgroundColor=#FFFFFF;" parent="1" vertex="1"><mxGeometry x="245" y="703.75" width="75" height="40" as="geometry"/></mxCell><mxCell id="sMxC_BpVTvGF2aHkU9Yo-357" value="TimeOfShift&lt;br&gt;Text" style="ellipse;whiteSpace=wrap;html=1;align=center;labelBackgroundColor=#FFFFFF;" parent="1" vertex="1"><mxGeometry x="144.22" y="677.5" width="95" height="50" as="geometry"/></mxCell><mxCell id="sMxC_BpVTvGF2aHkU9Yo-358" value="" style="endArrow=none;html=1;rounded=0;fontColor=#000000;labelBackgroundColor=#FFFFFF;" parent="1" source="sMxC_BpVTvGF2aHkU9Yo-397" target="sMxC_BpVTvGF2aHkU9Yo-356" edge="1"><mxGeometry relative="1" as="geometry"><mxPoint x="407.2660866380843" y="718.3210683508946" as="sourcePoint"/><mxPoint x="415.53" y="817.5" as="targetPoint"/></mxGeometry></mxCell><mxCell id="sMxC_BpVTvGF2aHkU9Yo-359" value="" style="endArrow=none;html=1;rounded=0;fontColor=#000000;labelBackgroundColor=#FFFFFF;" parent="1" source="sMxC_BpVTvGF2aHkU9Yo-397" target="sMxC_BpVTvGF2aHkU9Yo-357" edge="1"><mxGeometry relative="1" as="geometry"><mxPoint x="385.20671522770476" y="710.5344917852822" as="sourcePoint"/><mxPoint x="351.28" y="774.5" as="targetPoint"/></mxGeometry></mxCell><mxCell id="sMxC_BpVTvGF2aHkU9Yo-362" value="" style="endArrow=classic;html=1;rounded=0;fontColor=#000000;labelBackgroundColor=#FFFFFF;" parent="1" source="sMxC_BpVTvGF2aHkU9Yo-30" target="sMxC_BpVTvGF2aHkU9Yo-386" edge="1"><mxGeometry width="50" height="50" relative="1" as="geometry"><mxPoint x="306.24" y="2145" as="sourcePoint"/><mxPoint x="201.24" y="2145" as="targetPoint"/></mxGeometry></mxCell><mxCell id="sMxC_BpVTvGF2aHkU9Yo-363" value="" style="endArrow=classic;html=1;rounded=0;exitX=0;exitY=0.5;exitDx=0;exitDy=0;fontColor=#000000;labelBackgroundColor=#FFFFFF;entryX=1;entryY=0.5;entryDx=0;entryDy=0;" parent="1" source="n5WCB7rQCjIqwL3kKHlA-1" target="sMxC_BpVTvGF2aHkU9Yo-389" edge="1"><mxGeometry width="50" height="50" relative="1" as="geometry"><mxPoint x="470" y="1340" as="sourcePoint"/><mxPoint x="380" y="1120" as="targetPoint"/></mxGeometry></mxCell><mxCell id="sMxC_BpVTvGF2aHkU9Yo-364" value="" style="endArrow=classic;html=1;rounded=0;fontColor=#000000;labelBackgroundColor=#FFFFFF;" parent="1" source="sMxC_BpVTvGF2aHkU9Yo-389" target="sMxC_BpVTvGF2aHkU9Yo-95" edge="1"><mxGeometry width="50" height="50" relative="1" as="geometry"><mxPoint x="250" y="1070" as="sourcePoint"/><mxPoint x="829.88" y="1452" as="targetPoint"/></mxGeometry></mxCell><mxCell id="sMxC_BpVTvGF2aHkU9Yo-365" value="" style="endArrow=classic;html=1;rounded=0;fontColor=#000000;labelBackgroundColor=#FFFFFF;" parent="1" source="sMxC_BpVTvGF2aHkU9Yo-30" target="sMxC_BpVTvGF2aHkU9Yo-390" edge="1"><mxGeometry width="50" height="50" relative="1" as="geometry"><mxPoint x="455.24" y="2095" as="sourcePoint"/><mxPoint x="798.1699999999998" y="2040.8200000000002" as="targetPoint"/></mxGeometry></mxCell><mxCell id="sMxC_BpVTvGF2aHkU9Yo-366" value="" style="endArrow=classic;html=1;rounded=0;fontColor=#000000;labelBackgroundColor=#FFFFFF;" parent="1" source="sMxC_BpVTvGF2aHkU9Yo-30" target="n5WCB7rQCjIqwL3kKHlA-31" edge="1"><mxGeometry width="50" height="50" relative="1" as="geometry"><mxPoint x="416.24" y="2115" as="sourcePoint"/><mxPoint x="541.24" y="2056.682464454976" as="targetPoint"/></mxGeometry></mxCell><mxCell id="sMxC_BpVTvGF2aHkU9Yo-370" value="" style="endArrow=classic;html=1;rounded=0;fontColor=#000000;labelBackgroundColor=#FFFFFF;" parent="1" source="uhVs8H4B_nVWCRDEAxtj-1" target="sMxC_BpVTvGF2aHkU9Yo-388" edge="1"><mxGeometry width="50" height="50" relative="1" as="geometry"><mxPoint x="477.18105263157895" y="1520" as="sourcePoint"/><mxPoint x="-294.71112053133834" y="1801.0281442590444" as="targetPoint"/></mxGeometry></mxCell><mxCell id="sMxC_BpVTvGF2aHkU9Yo-371" value="" style="endArrow=classic;html=1;rounded=0;fontColor=#000000;labelBackgroundColor=#FFFFFF;" parent="1" source="sMxC_BpVTvGF2aHkU9Yo-187" target="sMxC_BpVTvGF2aHkU9Yo-61" edge="1"><mxGeometry width="50" height="50" relative="1" as="geometry"><mxPoint x="1490" y="600" as="sourcePoint"/><mxPoint x="1540" y="550" as="targetPoint"/></mxGeometry></mxCell><mxCell id="sMxC_BpVTvGF2aHkU9Yo-375" value="" style="endArrow=classic;html=1;rounded=0;fontColor=#000000;labelBackgroundColor=#FFFFFF;" parent="1" source="sMxC_BpVTvGF2aHkU9Yo-286" target="sMxC_BpVTvGF2aHkU9Yo-391" edge="1"><mxGeometry width="50" height="50" relative="1" as="geometry"><mxPoint x="1183.13" y="575" as="sourcePoint"/><mxPoint x="1331.1800000000003" y="479.55999999999995" as="targetPoint"/></mxGeometry></mxCell><mxCell id="sMxC_BpVTvGF2aHkU9Yo-376" value="" style="endArrow=classic;html=1;rounded=0;fontColor=#000000;labelBackgroundColor=#FFFFFF;" parent="1" source="sMxC_BpVTvGF2aHkU9Yo-392" target="sMxC_BpVTvGF2aHkU9Yo-61" edge="1"><mxGeometry width="50" height="50" relative="1" as="geometry"><mxPoint x="1505.4" y="767.8000000000002" as="sourcePoint"/><mxPoint x="1360" y="880" as="targetPoint"/><Array as="points"/></mxGeometry></mxCell><mxCell id="sMxC_BpVTvGF2aHkU9Yo-378" value="" style="endArrow=classic;html=1;rounded=0;exitX=0.5;exitY=1;exitDx=0;exitDy=0;fontColor=#000000;labelBackgroundColor=#FFFFFF;" parent="1" source="sMxC_BpVTvGF2aHkU9Yo-395" target="sMxC_BpVTvGF2aHkU9Yo-61" edge="1"><mxGeometry width="50" height="50" relative="1" as="geometry"><mxPoint x="1320" y="855" as="sourcePoint"/><mxPoint x="1520" y="850" as="targetPoint"/></mxGeometry></mxCell><mxCell id="sMxC_BpVTvGF2aHkU9Yo-379" value="" style="endArrow=classic;html=1;rounded=0;fontColor=#000000;labelBackgroundColor=#FFFFFF;" parent="1" source="sMxC_BpVTvGF2aHkU9Yo-117" target="sMxC_BpVTvGF2aHkU9Yo-396" edge="1"><mxGeometry width="50" height="50" relative="1" as="geometry"><mxPoint x="1300.745" y="1008.75" as="sourcePoint"/><mxPoint x="1543.87" y="933.75" as="targetPoint"/></mxGeometry></mxCell><mxCell id="sMxC_BpVTvGF2aHkU9Yo-381" value="" style="endArrow=classic;html=1;rounded=0;exitX=0.5;exitY=1;exitDx=0;exitDy=0;fontColor=#000000;labelBackgroundColor=#FFFFFF;" parent="1" source="sMxC_BpVTvGF2aHkU9Yo-5" target="sMxC_BpVTvGF2aHkU9Yo-397" edge="1"><mxGeometry width="50" height="50" relative="1" as="geometry"><mxPoint x="440" y="592.5" as="sourcePoint"/><mxPoint x="317.46167980416135" y="783.3724602203181" as="targetPoint"/></mxGeometry></mxCell><mxCell id="sMxC_BpVTvGF2aHkU9Yo-382" value="" style="endArrow=classic;html=1;rounded=0;fontColor=#000000;labelBackgroundColor=#FFFFFF;" parent="1" source="sMxC_BpVTvGF2aHkU9Yo-249" target="sMxC_BpVTvGF2aHkU9Yo-398" edge="1"><mxGeometry width="50" height="50" relative="1" as="geometry"><mxPoint x="1005.9" y="205" as="sourcePoint"/><mxPoint x="1061.9141294439382" y="349.9225159525979" as="targetPoint"/></mxGeometry></mxCell><mxCell id="sMxC_BpVTvGF2aHkU9Yo-383" value="" style="endArrow=classic;html=1;rounded=0;fontColor=#000000;labelBackgroundColor=#FFFFFF;" parent="1" source="sMxC_BpVTvGF2aHkU9Yo-310" target="sMxC_BpVTvGF2aHkU9Yo-398" edge="1"><mxGeometry width="50" height="50" relative="1" as="geometry"><mxPoint x="1183.5900000000001" y="320" as="sourcePoint"/><mxPoint x="1050.2846308724834" y="355.36912751677846" as="targetPoint"/></mxGeometry></mxCell><mxCell id="sMxC_BpVTvGF2aHkU9Yo-384" value="" style="endArrow=classic;html=1;rounded=0;exitX=0.25;exitY=1;exitDx=0;exitDy=0;fontColor=#000000;labelBackgroundColor=#FFFFFF;" parent="1" source="sMxC_BpVTvGF2aHkU9Yo-249" target="sMxC_BpVTvGF2aHkU9Yo-399" edge="1"><mxGeometry width="50" height="50" relative="1" as="geometry"><mxPoint x="945.9" y="235" as="sourcePoint"/><mxPoint x="1071.9" y="360" as="targetPoint"/></mxGeometry></mxCell><mxCell id="sMxC_BpVTvGF2aHkU9Yo-385" value="" style="endArrow=classic;html=1;rounded=0;entryX=0.703;entryY=0.814;entryDx=0;entryDy=0;entryPerimeter=0;fontColor=#000000;labelBackgroundColor=#FFFFFF;" parent="1" source="sMxC_BpVTvGF2aHkU9Yo-310" target="sMxC_BpVTvGF2aHkU9Yo-399" edge="1"><mxGeometry width="50" height="50" relative="1" as="geometry"><mxPoint x="1003.59" y="480" as="sourcePoint"/><mxPoint x="1040.5900000000001" y="323" as="targetPoint"/></mxGeometry></mxCell><mxCell id="sMxC_BpVTvGF2aHkU9Yo-386" value="Schedules" style="rhombus;whiteSpace=wrap;html=1;dashed=1;labelBackgroundColor=#FFFFFF;" parent="1" vertex="1"><mxGeometry x="288.75" y="1370" width="116.45" height="70" as="geometry"/></mxCell><mxCell id="sMxC_BpVTvGF2aHkU9Yo-388" value="RoleCounts" style="rhombus;whiteSpace=wrap;html=1;dashed=1;labelBackgroundColor=#FFFFFF;" parent="1" vertex="1"><mxGeometry x="688.69" y="1370" width="121.9" height="70" as="geometry"/></mxCell><mxCell id="sMxC_BpVTvGF2aHkU9Yo-389" value="ConstraintsToEmployee" style="rhombus;whiteSpace=wrap;html=1;dashed=1;labelBackgroundColor=#FFFFFF;" parent="1" vertex="1"><mxGeometry x="15" y="930" width="185.02" height="70" as="geometry"/></mxCell><mxCell id="sMxC_BpVTvGF2aHkU9Yo-390" value="BranchEmployeeRoles" style="rhombus;whiteSpace=wrap;html=1;dashed=1;labelBackgroundColor=#FFFFFF;" parent="1" vertex="1"><mxGeometry x="4.9999999999999645" y="1465" width="185.02" height="70" as="geometry"/></mxCell><mxCell id="sMxC_BpVTvGF2aHkU9Yo-391" value="TruckDeliveryDates" style="rhombus;whiteSpace=wrap;html=1;dashed=1;labelBackgroundColor=#FFFFFF;" parent="1" vertex="1"><mxGeometry x="1277.5" y="480" width="142.5" height="70" as="geometry"/></mxCell><mxCell id="sMxC_BpVTvGF2aHkU9Yo-392" value="DriverDeliveryDates" style="rhombus;whiteSpace=wrap;html=1;dashed=1;labelBackgroundColor=#FFFFFF;" parent="1" vertex="1"><mxGeometry x="1221.88" y="711.25" width="170" height="70" as="geometry"/></mxCell><mxCell id="sMxC_BpVTvGF2aHkU9Yo-395" value="DriverQualifications" style="rhombus;whiteSpace=wrap;html=1;dashed=1;labelBackgroundColor=#FFFFFF;" parent="1" vertex="1"><mxGeometry x="1435" y="723.75" width="170" height="70" as="geometry"/></mxCell><mxCell id="sMxC_BpVTvGF2aHkU9Yo-396" value="DriverSchedules" style="rhombus;whiteSpace=wrap;html=1;dashed=1;labelBackgroundColor=#FFFFFF;" parent="1" vertex="1"><mxGeometry x="1413.87" y="843.75" width="170" height="70" as="geometry"/></mxCell><mxCell id="sMxC_BpVTvGF2aHkU9Yo-397" value="&lt;font&gt;TimesOfShifts&lt;/font&gt;" style="rhombus;whiteSpace=wrap;html=1;dashed=1;labelBackgroundColor=#FFFFFF;" parent="1" vertex="1"><mxGeometry x="215.93999999999997" y="607.5" width="170" height="70" as="geometry"/></mxCell><mxCell id="sMxC_BpVTvGF2aHkU9Yo-398" value="StopUnloadItems" style="rhombus;whiteSpace=wrap;html=1;dashed=1;labelBackgroundColor=#FFFFFF;" parent="1" vertex="1"><mxGeometry x="993.59" y="255" width="130" height="70" as="geometry"/></mxCell><mxCell id="sMxC_BpVTvGF2aHkU9Yo-399" value="StopLoadItems" style="rhombus;whiteSpace=wrap;html=1;dashed=1;labelBackgroundColor=#FFFFFF;" parent="1" vertex="1"><mxGeometry x="838.59" y="255" width="145" height="70" as="geometry"/></mxCell><mxCell id="sMxC_BpVTvGF2aHkU9Yo-401" value="" style="endArrow=classic;html=1;rounded=0;fontColor=#000000;labelBackgroundColor=#FFFFFF;" parent="1" source="uhVs8H4B_nVWCRDEAxtj-1" target="sMxC_BpVTvGF2aHkU9Yo-386" edge="1"><mxGeometry width="50" height="50" relative="1" as="geometry"><mxPoint x="756.25" y="1510" as="sourcePoint"/><mxPoint x="333" y="1831" as="targetPoint"/></mxGeometry></mxCell><mxCell id="sMxC_BpVTvGF2aHkU9Yo-402" value="" style="endArrow=none;html=1;rounded=0;fontColor=#000000;labelBackgroundColor=#FFFFFF;" parent="1" source="sMxC_BpVTvGF2aHkU9Yo-321" target="sMxC_BpVTvGF2aHkU9Yo-403" edge="1"><mxGeometry relative="1" as="geometry"><mxPoint x="300.49" y="323.25" as="sourcePoint"/><mxPoint x="462.49" y="491.25" as="targetPoint"/></mxGeometry></mxCell><mxCell id="sMxC_BpVTvGF2aHkU9Yo-403" value="" style="triangle;whiteSpace=wrap;html=1;rotation=-150;labelBackgroundColor=#FFFFFF;" parent="1" vertex="1"><mxGeometry x="442.51" y="445" width="60" height="80" as="geometry"/></mxCell><mxCell id="sMxC_BpVTvGF2aHkU9Yo-404" value="" style="endArrow=none;html=1;rounded=0;fontColor=#000000;labelBackgroundColor=#FFFFFF;" parent="1" source="sMxC_BpVTvGF2aHkU9Yo-403" target="sMxC_BpVTvGF2aHkU9Yo-5" edge="1"><mxGeometry relative="1" as="geometry"><mxPoint x="510" y="532.5" as="sourcePoint"/><mxPoint x="570" y="572.5" as="targetPoint"/></mxGeometry></mxCell><mxCell id="sMxC_BpVTvGF2aHkU9Yo-405" value="IS A" style="text;html=1;align=center;verticalAlign=middle;whiteSpace=wrap;rounded=0;labelBackgroundColor=#FFFFFF;" parent="1" vertex="1"><mxGeometry x="451.25" y="478.75" width="60" height="30" as="geometry"/></mxCell><mxCell id="sMxC_BpVTvGF2aHkU9Yo-406" value="(0,n)" style="text;html=1;align=center;verticalAlign=middle;whiteSpace=wrap;rounded=0;labelBackgroundColor=#FFFFFF;" parent="1" vertex="1"><mxGeometry x="532.39" y="1020" width="60" height="30" as="geometry"/></mxCell><mxCell id="sMxC_BpVTvGF2aHkU9Yo-407" value="(0,n)" style="text;html=1;align=center;verticalAlign=middle;whiteSpace=wrap;rounded=0;labelBackgroundColor=#FFFFFF;" parent="1" vertex="1"><mxGeometry x="201.01999999999998" y="1380" width="60" height="30" as="geometry"/></mxCell><mxCell id="sMxC_BpVTvGF2aHkU9Yo-408" value="(1,1)" style="text;html=1;align=center;verticalAlign=middle;whiteSpace=wrap;rounded=0;labelBackgroundColor=#FFFFFF;" parent="1" vertex="1"><mxGeometry x="1003.4000000000001" y="355" width="56.44" height="20" as="geometry"/></mxCell><mxCell id="sMxC_BpVTvGF2aHkU9Yo-409" value="(0,n)" style="text;html=1;align=center;verticalAlign=middle;whiteSpace=wrap;rounded=0;labelBackgroundColor=#FFFFFF;" parent="1" vertex="1"><mxGeometry x="1010.9" y="211.25" width="60" height="30" as="geometry"/></mxCell><mxCell id="sMxC_BpVTvGF2aHkU9Yo-410" value="(1,1)" style="text;html=1;align=center;verticalAlign=middle;whiteSpace=wrap;rounded=0;labelBackgroundColor=#FFFFFF;" parent="1" vertex="1"><mxGeometry x="920.9" y="350" width="60" height="30" as="geometry"/></mxCell><mxCell id="sMxC_BpVTvGF2aHkU9Yo-411" value="(0,n)" style="text;html=1;align=center;verticalAlign=middle;whiteSpace=wrap;rounded=0;labelBackgroundColor=#FFFFFF;" parent="1" vertex="1"><mxGeometry x="915.58" y="211.25" width="60" height="30" as="geometry"/></mxCell><mxCell id="n5WCB7rQCjIqwL3kKHlA-1" value="Employees" style="whiteSpace=wrap;html=1;align=center;labelBackgroundColor=#FFFFFF;" parent="1" vertex="1"><mxGeometry x="601.84" y="1010" width="120" height="40" as="geometry"/></mxCell><mxCell id="n5WCB7rQCjIqwL3kKHlA-2" value="" style="endArrow=classic;html=1;rounded=0;fontColor=#000000;labelBackgroundColor=#FFFFFF;" parent="1" source="sMxC_BpVTvGF2aHkU9Yo-61" target="sMxC_BpVTvGF2aHkU9Yo-396" edge="1"><mxGeometry width="50" height="50" relative="1" as="geometry"><mxPoint x="1920" y="903" as="sourcePoint"/><mxPoint x="1847" y="1080" as="targetPoint"/></mxGeometry></mxCell><mxCell id="n5WCB7rQCjIqwL3kKHlA-5" value="" style="triangle;whiteSpace=wrap;html=1;rotation=90;labelBackgroundColor=#FFFFFF;" parent="1" vertex="1"><mxGeometry x="86.98000000000006" y="1210" width="60" height="80" as="geometry"/></mxCell><mxCell id="n5WCB7rQCjIqwL3kKHlA-7" value="" style="endArrow=none;html=1;rounded=0;fontColor=#000000;labelBackgroundColor=#FFFFFF;" parent="1" source="sMxC_BpVTvGF2aHkU9Yo-30" target="n5WCB7rQCjIqwL3kKHlA-5" edge="1"><mxGeometry relative="1" as="geometry"><mxPoint x="472" y="1034" as="sourcePoint"/><mxPoint x="150" y="1540" as="targetPoint"/></mxGeometry></mxCell><mxCell id="n5WCB7rQCjIqwL3kKHlA-8" value="" style="endArrow=none;html=1;rounded=0;fontColor=#000000;labelBackgroundColor=#FFFFFF;" parent="1" source="n5WCB7rQCjIqwL3kKHlA-5" target="8IXS_9Sr5D_N1Rm2nCnM-7" edge="1"><mxGeometry relative="1" as="geometry"><mxPoint x="1005" y="1290" as="sourcePoint"/><mxPoint x="360" y="1230" as="targetPoint"/></mxGeometry></mxCell><mxCell id="n5WCB7rQCjIqwL3kKHlA-9" value="" style="endArrow=none;html=1;rounded=0;fontColor=#000000;labelBackgroundColor=#FFFFFF;" parent="1" source="8IXS_9Sr5D_N1Rm2nCnM-8" target="n5WCB7rQCjIqwL3kKHlA-5" edge="1"><mxGeometry relative="1" as="geometry"><mxPoint x="250" y="1210" as="sourcePoint"/><mxPoint x="1540" y="1250" as="targetPoint"/></mxGeometry></mxCell><mxCell id="n5WCB7rQCjIqwL3kKHlA-10" value="" style="endArrow=none;html=1;rounded=0;fontColor=#000000;labelBackgroundColor=#FFFFFF;" parent="1" source="sMxC_BpVTvGF2aHkU9Yo-98" target="sMxC_BpVTvGF2aHkU9Yo-95" edge="1"><mxGeometry relative="1" as="geometry"><mxPoint x="141.02" y="803.75" as="sourcePoint"/><mxPoint x="156.02" y="833.75" as="targetPoint"/></mxGeometry></mxCell><mxCell id="n5WCB7rQCjIqwL3kKHlA-11" value="IS A" style="text;html=1;align=center;verticalAlign=middle;whiteSpace=wrap;rounded=0;labelBackgroundColor=#FFFFFF;" parent="1" vertex="1"><mxGeometry x="86.98" y="1225" width="60" height="30" as="geometry"/></mxCell><mxCell id="n5WCB7rQCjIqwL3kKHlA-12" value="Shifts" style="whiteSpace=wrap;html=1;align=center;labelBackgroundColor=#FFFFFF;" parent="1" vertex="1"><mxGeometry x="1178.7600000000002" y="1037.5" width="72.5" height="40" as="geometry"/></mxCell><mxCell id="n5WCB7rQCjIqwL3kKHlA-13" value="" style="endArrow=none;html=1;rounded=0;fontColor=#000000;labelBackgroundColor=#FFFFFF;" parent="1" source="n5WCB7rQCjIqwL3kKHlA-12" edge="1"><mxGeometry relative="1" as="geometry"><mxPoint x="1336.88" y="1069" as="sourcePoint"/><mxPoint x="1332.88" y="1099" as="targetPoint"/></mxGeometry></mxCell><mxCell id="n5WCB7rQCjIqwL3kKHlA-14" value="" style="triangle;whiteSpace=wrap;html=1;rotation=90;labelBackgroundColor=#FFFFFF;" parent="1" vertex="1"><mxGeometry x="1306.88" y="1089" width="60" height="80" as="geometry"/></mxCell><mxCell id="n5WCB7rQCjIqwL3kKHlA-15" value="IS A" style="text;html=1;align=center;verticalAlign=middle;whiteSpace=wrap;rounded=0;labelBackgroundColor=#FFFFFF;" parent="1" vertex="1"><mxGeometry x="1306.88" y="1109" width="60" height="30" as="geometry"/></mxCell><mxCell id="n5WCB7rQCjIqwL3kKHlA-16" value="" style="endArrow=none;html=1;rounded=0;fontColor=#000000;labelBackgroundColor=#FFFFFF;" parent="1" source="n5WCB7rQCjIqwL3kKHlA-14" target="sMxC_BpVTvGF2aHkU9Yo-117" edge="1"><mxGeometry relative="1" as="geometry"><mxPoint x="815" y="1172" as="sourcePoint"/><mxPoint x="1540" y="1250" as="targetPoint"/></mxGeometry></mxCell><mxCell id="n5WCB7rQCjIqwL3kKHlA-17" value="ShiftId&lt;br&gt;Integer" style="ellipse;whiteSpace=wrap;html=1;align=center;fontStyle=4;labelBackgroundColor=#FFFFFF;" parent="1" vertex="1"><mxGeometry x="563.3299999999998" y="1550" width="71.25" height="40" as="geometry"/></mxCell><mxCell id="n5WCB7rQCjIqwL3kKHlA-18" value="" style="endArrow=none;html=1;rounded=0;fontColor=#000000;labelBackgroundColor=#FFFFFF;" parent="1" source="n5WCB7rQCjIqwL3kKHlA-17" target="n5WCB7rQCjIqwL3kKHlA-31" edge="1"><mxGeometry relative="1" as="geometry"><mxPoint x="548.4082664660933" y="1892.8992452535108" as="sourcePoint"/><mxPoint x="588.1968421052633" y="1770" as="targetPoint"/></mxGeometry></mxCell><mxCell id="n5WCB7rQCjIqwL3kKHlA-19" value="" style="endArrow=none;html=1;rounded=0;fontColor=#000000;labelBackgroundColor=#FFFFFF;" parent="1" source="n5WCB7rQCjIqwL3kKHlA-17" target="sMxC_BpVTvGF2aHkU9Yo-126" edge="1"><mxGeometry relative="1" as="geometry"><mxPoint x="633.4599999999999" y="1895" as="sourcePoint"/><mxPoint x="583.4599999999999" y="1855" as="targetPoint"/></mxGeometry></mxCell><mxCell id="n5WCB7rQCjIqwL3kKHlA-22" value="" style="endArrow=none;html=1;rounded=0;fontColor=#000000;labelBackgroundColor=#FFFFFF;" parent="1" source="sMxC_BpVTvGF2aHkU9Yo-177" target="sMxC_BpVTvGF2aHkU9Yo-388" edge="1"><mxGeometry relative="1" as="geometry"><mxPoint x="535.52" y="1561" as="sourcePoint"/><mxPoint x="604.52" y="1497" as="targetPoint"/></mxGeometry></mxCell><mxCell id="n5WCB7rQCjIqwL3kKHlA-25" value="" style="endArrow=none;html=1;rounded=0;fontColor=#000000;labelBackgroundColor=#FFFFFF;" parent="1" target="n5WCB7rQCjIqwL3kKHlA-14" edge="1"><mxGeometry relative="1" as="geometry"><mxPoint x="1100" y="1129" as="sourcePoint"/><mxPoint x="1390" y="1390" as="targetPoint"/></mxGeometry></mxCell><mxCell id="n5WCB7rQCjIqwL3kKHlA-29" value="(0,n)" style="text;html=1;align=center;verticalAlign=middle;whiteSpace=wrap;rounded=0;labelBackgroundColor=#FFFFFF;" parent="1" vertex="1"><mxGeometry x="517.49" y="1370" width="60" height="30" as="geometry"/></mxCell><mxCell id="n5WCB7rQCjIqwL3kKHlA-31" value="ProductCancellationsToShift" style="rhombus;whiteSpace=wrap;html=1;dashed=1;labelBackgroundColor=#FFFFFF;" parent="1" vertex="1"><mxGeometry x="265.00000000000006" y="1450" width="225" height="100" as="geometry"/></mxCell><mxCell id="uhVs8H4B_nVWCRDEAxtj-1" value="BranchShifts" style="whiteSpace=wrap;html=1;align=center;labelBackgroundColor=#FFFFFF;" parent="1" vertex="1"><mxGeometry x="570.6300000000001" y="1370" width="72.5" height="40" as="geometry"/></mxCell><mxCell id="uhVs8H4B_nVWCRDEAxtj-2" value="Type&lt;br&gt;Text" style="ellipse;whiteSpace=wrap;html=1;align=center;labelBackgroundColor=#FFFFFF;" parent="1" vertex="1"><mxGeometry x="452.6899999999998" y="1290" width="88.75" height="40" as="geometry"/></mxCell><mxCell id="uhVs8H4B_nVWCRDEAxtj-4" value="" style="endArrow=none;html=1;rounded=0;entryX=0.25;entryY=0;entryDx=0;entryDy=0;fontColor=#000000;labelBackgroundColor=#FFFFFF;" parent="1" source="uhVs8H4B_nVWCRDEAxtj-2" target="uhVs8H4B_nVWCRDEAxtj-1" edge="1"><mxGeometry relative="1" as="geometry"><mxPoint x="603" y="1330" as="sourcePoint"/><mxPoint x="613" y="1380" as="targetPoint"/></mxGeometry></mxCell><mxCell id="gv4yUgiAANdQhm1YgqgM-1" value="ShiftId&lt;br&gt;Integer" style="ellipse;whiteSpace=wrap;html=1;align=center;fontStyle=4;labelBackgroundColor=#FFFFFF;" parent="1" vertex="1"><mxGeometry x="1474.4899999999998" y="1050" width="71.25" height="40" as="geometry"/></mxCell><mxCell id="gv4yUgiAANdQhm1YgqgM-3" value="" style="endArrow=none;html=1;rounded=0;fontColor=#000000;labelBackgroundColor=#FFFFFF;" parent="1" source="gv4yUgiAANdQhm1YgqgM-1" target="sMxC_BpVTvGF2aHkU9Yo-117" edge="1"><mxGeometry relative="1" as="geometry"><mxPoint x="1546.87" y="1026" as="sourcePoint"/><mxPoint x="1523.87" y="1018" as="targetPoint"/></mxGeometry></mxCell><mxCell id="XvUfJrCeviMczVrN5lAc-1" value="" style="endArrow=classic;html=1;rounded=0;fontColor=#000000;labelBackgroundColor=#FFFFFF;" parent="1" source="sMxC_BpVTvGF2aHkU9Yo-263" target="sMxC_BpVTvGF2aHkU9Yo-230" edge="1"><mxGeometry width="50" height="50" relative="1" as="geometry"><mxPoint x="1430" y="290" as="sourcePoint"/><mxPoint x="1360" y="230" as="targetPoint"/></mxGeometry></mxCell><mxCell id="XvUfJrCeviMczVrN5lAc-2" value="" style="endArrow=classic;html=1;rounded=0;exitX=1;exitY=0.75;exitDx=0;exitDy=0;entryX=0;entryY=0.25;entryDx=0;entryDy=0;fontColor=#000000;labelBackgroundColor=#FFFFFF;" parent="1" source="sMxC_BpVTvGF2aHkU9Yo-249" target="sMxC_BpVTvGF2aHkU9Yo-187" edge="1"><mxGeometry width="50" height="50" relative="1" as="geometry"><mxPoint x="828" y="288" as="sourcePoint"/><mxPoint x="1370" y="240" as="targetPoint"/></mxGeometry></mxCell><mxCell id="XvUfJrCeviMczVrN5lAc-3" value="" style="endArrow=classic;html=1;rounded=0;fontColor=#000000;labelBackgroundColor=#FFFFFF;" parent="1" source="sMxC_BpVTvGF2aHkU9Yo-263" target="sMxC_BpVTvGF2aHkU9Yo-321" edge="1"><mxGeometry width="50" height="50" relative="1" as="geometry"><mxPoint x="758.75" y="322.5" as="sourcePoint"/><mxPoint x="1070" y="552.5" as="targetPoint"/></mxGeometry></mxCell><mxCell id="XvUfJrCeviMczVrN5lAc-5" value="" style="endArrow=classic;html=1;rounded=0;entryX=0.5;entryY=0;entryDx=0;entryDy=0;fontColor=#000000;labelBackgroundColor=#FFFFFF;" parent="1" source="sMxC_BpVTvGF2aHkU9Yo-187" target="sMxC_BpVTvGF2aHkU9Yo-286" edge="1"><mxGeometry width="50" height="50" relative="1" as="geometry"><mxPoint x="1284.38" y="203.75" as="sourcePoint"/><mxPoint x="1244.38" y="166.75" as="targetPoint"/></mxGeometry></mxCell><mxCell id="XvUfJrCeviMczVrN5lAc-6" value="" style="endArrow=classic;html=1;rounded=0;fontColor=#000000;labelBackgroundColor=#FFFFFF;entryX=0.406;entryY=0.954;entryDx=0;entryDy=0;entryPerimeter=0;" parent="1" source="sMxC_BpVTvGF2aHkU9Yo-310" target="sMxC_BpVTvGF2aHkU9Yo-249" edge="1"><mxGeometry width="50" height="50" relative="1" as="geometry"><mxPoint x="1005.9" y="465" as="sourcePoint"/><mxPoint x="985.9" y="215" as="targetPoint"/></mxGeometry></mxCell><mxCell id="XvUfJrCeviMczVrN5lAc-7" value="Counters" style="whiteSpace=wrap;html=1;align=center;labelBackgroundColor=#FFFFFF;" parent="1" vertex="1"><mxGeometry x="885.81" y="555" width="100" height="40" as="geometry"/></mxCell><mxCell id="XvUfJrCeviMczVrN5lAc-10" value="" style="endArrow=classic;html=1;rounded=0;fontColor=#000000;labelBackgroundColor=#FFFFFF;" parent="1" source="sMxC_BpVTvGF2aHkU9Yo-230" target="sMxC_BpVTvGF2aHkU9Yo-321" edge="1"><mxGeometry width="50" height="50" relative="1" as="geometry"><mxPoint x="1163" y="226" as="sourcePoint"/><mxPoint x="1600" y="228" as="targetPoint"/></mxGeometry></mxCell><mxCell id="XvUfJrCeviMczVrN5lAc-11" value="" style="endArrow=classic;html=1;rounded=0;fontColor=#000000;labelBackgroundColor=#FFFFFF;entryX=1;entryY=0.5;entryDx=0;entryDy=0;" parent="1" source="sMxC_BpVTvGF2aHkU9Yo-187" target="sMxC_BpVTvGF2aHkU9Yo-310" edge="1"><mxGeometry width="50" height="50" relative="1" as="geometry"><mxPoint x="1460" y="470" as="sourcePoint"/><mxPoint x="1600" y="228" as="targetPoint"/></mxGeometry></mxCell><mxCell id="XvUfJrCeviMczVrN5lAc-12" value="&lt;u&gt;CounterName&lt;br&gt;Text&lt;/u&gt;" style="ellipse;whiteSpace=wrap;html=1;align=center;labelBackgroundColor=#FFFFFF;" parent="1" vertex="1"><mxGeometry x="835.81" y="655" width="93.13" height="50" as="geometry"/></mxCell><mxCell id="XvUfJrCeviMczVrN5lAc-13" value="NextId&lt;br&gt;Integer" style="ellipse;whiteSpace=wrap;html=1;align=center;labelBackgroundColor=#FFFFFF;" parent="1" vertex="1"><mxGeometry x="962.69" y="660" width="60" height="40" as="geometry"/></mxCell><mxCell id="XvUfJrCeviMczVrN5lAc-14" value="" style="endArrow=none;html=1;rounded=0;fontColor=#000000;labelBackgroundColor=#FFFFFF;" parent="1" source="XvUfJrCeviMczVrN5lAc-12" target="XvUfJrCeviMczVrN5lAc-7" edge="1"><mxGeometry relative="1" as="geometry"><mxPoint x="745.94" y="456" as="sourcePoint"/><mxPoint x="765.8699999999999" y="410.20000000000005" as="targetPoint"/></mxGeometry></mxCell><mxCell id="XvUfJrCeviMczVrN5lAc-15" value="" style="endArrow=none;html=1;rounded=0;exitX=0;exitY=0;exitDx=0;exitDy=0;fontColor=#000000;labelBackgroundColor=#FFFFFF;" parent="1" source="XvUfJrCeviMczVrN5lAc-13" target="XvUfJrCeviMczVrN5lAc-7" edge="1"><mxGeometry relative="1" as="geometry"><mxPoint x="904.94" y="666" as="sourcePoint"/><mxPoint x="935.94" y="605" as="targetPoint"/></mxGeometry></mxCell><mxCell id="8IXS_9Sr5D_N1Rm2nCnM-6" value="BranchShifts" style="whiteSpace=wrap;html=1;align=center;labelBackgroundColor=#FFFFFF;" parent="1" vertex="1"><mxGeometry x="1028.5900000000001" y="1109" width="72.5" height="40" as="geometry"/></mxCell><mxCell id="8IXS_9Sr5D_N1Rm2nCnM-7" value="Drivers" style="whiteSpace=wrap;html=1;align=center;labelBackgroundColor=#FFFFFF;" parent="1" vertex="1"><mxGeometry x="356.4500000000001" y="1240" width="120" height="40" as="geometry"/></mxCell><mxCell id="8IXS_9Sr5D_N1Rm2nCnM-8" value="Employees" style="whiteSpace=wrap;html=1;align=center;labelBackgroundColor=#FFFFFF;" parent="1" vertex="1"><mxGeometry x="354.00000000000006" y="1190" width="120" height="40" as="geometry"/></mxCell><mxCell id="8IXS_9Sr5D_N1Rm2nCnM-9" value="&lt;b&gt;פירוט הרלציות נמצא בחלק 2&lt;/b&gt;" style="text;html=1;strokeColor=none;fillColor=none;align=center;verticalAlign=middle;whiteSpace=wrap;rounded=0;" parent="1" vertex="1"><mxGeometry x="481.24" y="1220" width="98.76" height="30" as="geometry"/></mxCell><mxCell id="8IXS_9Sr5D_N1Rm2nCnM-10" value="&lt;b&gt;פירוט הרלצייה נמצא בחלק 3&lt;/b&gt;" style="text;html=1;strokeColor=none;fillColor=none;align=center;verticalAlign=middle;whiteSpace=wrap;rounded=0;" parent="1" vertex="1"><mxGeometry x="930" y="1109" width="92.69" height="30" as="geometry"/></mxCell><mxCell id="3" value="&lt;u&gt;&lt;b&gt;ERD part 1&lt;/b&gt;&lt;/u&gt;" style="text;html=1;align=center;verticalAlign=middle;whiteSpace=wrap;rounded=0;" parent="1" vertex="1"><mxGeometry x="20" y="21.880000000000003" width="103" height="30" as="geometry"/></mxCell><mxCell id="5" value="&lt;u&gt;&lt;b&gt;ERD part 2&lt;/b&gt;&lt;/u&gt;" style="text;html=1;align=center;verticalAlign=middle;whiteSpace=wrap;rounded=0;" parent="1" vertex="1"><mxGeometry x="838.59" y="8.750000000000004" width="103" height="30" as="geometry"/></mxCell><mxCell id="6" value="&lt;u&gt;&lt;b&gt;ERD part 3&lt;/b&gt;&lt;/u&gt;" style="text;html=1;align=center;verticalAlign=middle;whiteSpace=wrap;rounded=0;" parent="1" vertex="1"><mxGeometry x="3.5" y="1180" width="103" height="30" as="geometry"/></mxCell><mxCell id="10" value="" style="endArrow=classic;html=1;rounded=0;fontColor=#000000;labelBackgroundColor=#FFFFFF;entryX=0.57;entryY=0.062;entryDx=0;entryDy=0;entryPerimeter=0;" edge="1" parent="1" source="uhVs8H4B_nVWCRDEAxtj-1" target="n5WCB7rQCjIqwL3kKHlA-31"><mxGeometry width="50" height="50" relative="1" as="geometry"><mxPoint x="208.2066666666666" y="1440" as="sourcePoint"/><mxPoint x="327.610156574754" y="1486.6177081889982" as="targetPoint"/></mxGeometry></mxCell></root></mxGraphModel></diagram></mxfile>